<svg width="309" height="67" viewBox="0 0 309 67" fill="none" xmlns="http://www.w3.org/2000/svg">
<g clip-path="url(#clip0)">
<path d="M75.32 44.6401H71.38C70.1574 41.3975 69.4064 37.9961 69.15 34.5401C68.64 30.3801 66.93 27.1201 62.7 26.8901C61.7 26.8901 60.53 26.8901 59.62 26.8901H51.57V44.6401H48.04V5.26011H59.62C61.4132 5.21822 63.2071 5.29506 64.99 5.49011C70.81 6.23011 74.69 9.43011 74.69 15.7101C74.755 17.8946 74.0461 20.0318 72.6885 21.7444C71.3308 23.4571 69.4117 24.6349 67.27 25.0701C70.64 26.4401 72.27 30.0701 72.69 34.1401C73.26 39.5601 73.95 42.4201 75.32 44.6401ZM59.68 23.8701C61.39 23.8701 62.36 23.8701 63.68 23.7501C68.02 23.4101 70.87 20.6201 70.87 15.9901C70.87 11.3601 68.42 9.09011 64.14 8.46011C62.6433 8.28509 61.1368 8.20826 59.63 8.23011H51.57V23.8701H59.68Z" fill="white"/>
<path d="M105.11 30.5999H82.2202C82.6202 39.5099 87.1302 42.5999 92.0402 42.5999C94.2054 42.6374 96.3124 41.8972 97.9784 40.5137C99.6445 39.1302 100.759 37.1952 101.12 35.0599H104.83C103.4 42.0599 97.8302 45.3899 91.8302 45.3899C84.2802 45.4399 78.4502 40.1899 78.4502 29.5799C78.4502 19.8699 84.4502 13.6499 92.4502 13.6499C100.9 13.6499 105.29 20.3899 105.29 28.7199C105.272 29.3499 105.212 29.9779 105.11 30.5999V30.5999ZM82.2202 27.8099H101.63C101.23 20.0399 97.3502 16.5099 92.2702 16.5099C87.1902 16.5099 82.7402 20.2699 82.2202 27.8099Z" fill="white"/>
<path d="M129.2 39.1599L127.71 42.3599C126.586 43.4045 125.266 44.2148 123.825 44.7436C122.385 45.2724 120.853 45.5091 119.32 45.4399C113.73 45.4399 109.73 42.5299 109.73 37.0499C109.73 30.1499 116.3 26.7799 127.2 26.7799H129.14V25.7399C129.163 24.502 129.123 23.2638 129.02 22.0299C128.74 18.5399 126.63 16.5499 122.29 16.5499C118.12 16.5499 115.16 18.7699 114.7 23.4499H110.99C111.39 17.5199 115.9 13.6899 122.29 13.6899C128.97 13.6899 132.11 16.6899 132.56 21.6899C132.68 23.0099 132.68 24.2599 132.68 25.6899V36.1999C132.701 39.0222 132.891 41.8406 133.25 44.6399H129.71L129.2 39.1599ZM129.14 32.9999V29.5199C120.64 28.9499 113.62 30.9499 113.62 36.7699C113.62 40.5899 116.01 42.6499 120.41 42.6499C125.66 42.6499 129.14 38.6499 129.14 32.9999V32.9999Z" fill="white"/>
<path d="M144.45 36.6502C144.45 37.9702 144.45 38.9902 144.45 39.9102C144.57 41.8502 145.45 42.3602 147.99 42.0802V44.7402C147.067 44.8815 146.134 44.9384 145.2 44.9102C142.86 44.9102 141.09 44.1102 140.91 40.8602C140.86 39.8602 140.86 38.6302 140.86 36.8602V2.74023H144.45V36.6502Z" fill="white"/>
<path d="M184.16 44.6398H177.94V27.8598H157.73V44.6398H151.45V5.25977H157.72V22.7398H177.93V5.25977H184.15L184.16 44.6398Z" fill="white"/>
<path d="M218.97 44.6401H212.07C210.945 41.6359 210.271 38.4817 210.07 35.2801C209.56 31.1201 208.02 28.4901 204.42 28.2801C203.42 28.2301 202.48 28.2301 201.51 28.2301H195.45V44.6401H189.18V5.26014H202.76C204.569 5.21707 206.38 5.2939 208.18 5.49014C213.89 6.23014 218.18 9.26014 218.18 15.9901C218.18 21.1301 215.04 24.1501 210.87 25.4101C214.41 26.9501 215.87 30.4101 216.3 34.4801C216.69 39.4501 217.38 42.4701 218.97 44.6401ZM201.97 23.3601C203.151 23.3918 204.333 23.3517 205.51 23.2401C208.93 22.9001 211.51 20.9601 211.51 16.7901C211.51 12.6201 209.4 10.9101 206.03 10.4601C204.822 10.2801 203.601 10.2031 202.38 10.2301H195.38V23.3601H201.97Z" fill="white"/>
<path d="M243.45 22.8999H239.75C238.9 18.7299 236.44 16.5099 232.39 16.5099C228.74 16.5099 226.28 18.5599 226.28 21.8699C226.28 25.3499 229.14 26.7199 233.47 27.8099C240.47 29.5199 243.75 32.0299 243.75 37.1099C243.75 42.4699 239.18 45.4399 232.96 45.4399C226.96 45.4399 222.23 42.5899 221.37 35.7399H225.03C225.88 40.8799 229.14 42.6499 233.19 42.6499C237.01 42.6499 240.19 40.8799 240.19 37.3999C240.19 33.9199 238.02 32.3999 232.19 30.9499C227 29.5799 222.72 27.4599 222.72 22.2699C222.72 17.0799 226.83 13.6499 232.72 13.6499C239.24 13.6499 242.78 17.5899 243.45 22.8999Z" fill="white"/>
<path d="M276.68 29.5799C276.68 38.4199 271.6 45.4399 262.01 45.4399C252.42 45.4399 247.34 38.4399 247.34 29.5799C247.34 20.7199 252.45 13.6499 262.01 13.6499C271.57 13.6499 276.68 20.6699 276.68 29.5799ZM272.8 29.5799C272.8 21.3599 268.29 16.5099 262.01 16.5099C255.73 16.5099 251.22 21.3599 251.22 29.5799C251.22 37.7999 255.73 42.6499 262.01 42.6499C268.29 42.6499 272.8 37.7899 272.8 29.5799Z" fill="white"/>
<path d="M286.5 11.0299V14.6799H292.66V17.5299H286.5V44.6399H282.96V17.5299H279.7V14.6799H282.96V11.3099C282.96 10.3099 282.96 9.02986 283.07 7.94986C283.53 3.77986 286.33 1.60986 290.07 1.60986C291.14 1.60975 292.208 1.70682 293.26 1.89986V4.89986C289.26 4.09986 286.98 5.41986 286.64 8.09986C286.542 9.07339 286.495 10.0514 286.5 11.0299V11.0299Z" fill="white"/>
<path d="M302.45 36.37C302.45 37.62 302.45 38.25 302.51 39.05C302.74 41.96 303.99 42.7 308.04 42.19V44.81C306.835 45.0208 305.613 45.1178 304.39 45.1C301.02 45.1 299.25 43.62 298.97 40.31C298.91 39.31 298.91 38.14 298.91 36.42V17.42H295.03V14.68H298.91V8H302.45V14.68H308.21V17.42H302.45V36.37Z" fill="white"/>
<path d="M56.9698 55.7402V55.9002H55.9698V55.7402C55.8674 54.9237 55.46 54.1762 54.8294 53.6476C54.1988 53.119 53.3916 52.8484 52.5698 52.8902C50.3098 52.8902 48.5698 54.8202 48.5698 57.8102C48.5698 60.8002 50.2298 62.7402 52.4498 62.7402C53.2895 62.784 54.1145 62.5066 54.7571 61.9643C55.3997 61.4219 55.8119 60.6553 55.9098 59.8202V59.6602H56.9098V59.8202C56.7863 60.8927 56.2535 61.8762 55.4226 62.5655C54.5917 63.2549 53.5267 63.5968 52.4498 63.5202C49.4498 63.5202 47.5498 61.2002 47.5498 57.8502C47.5498 54.5002 49.6598 52.0802 52.6698 52.0802C53.7249 51.9972 54.7699 52.3359 55.5759 53.0219C56.3819 53.7079 56.8831 54.6853 56.9698 55.7402V55.7402Z" fill="white"/>
<path d="M66.4498 59.0899C66.4498 61.5599 65.0398 63.5199 62.3598 63.5199C59.6798 63.5199 58.2598 61.5199 58.2598 59.0899C58.2598 56.6599 59.6798 54.6499 62.3598 54.6499C65.0398 54.6499 66.4498 56.6099 66.4498 59.0899ZM65.3698 59.0899C65.3698 56.7999 64.1098 55.4399 62.3698 55.4399C60.6298 55.4399 59.3698 56.7999 59.3698 59.0899C59.3698 61.3799 60.5498 62.7399 62.3098 62.7399C64.0698 62.7399 65.3198 61.3899 65.3198 59.0899H65.3698Z" fill="white"/>
<path d="M79.1403 58.3301V63.33H78.1403V58.7401C78.148 58.2258 78.1246 57.7115 78.0703 57.2C78.072 56.9568 78.0239 56.7158 77.9289 56.4918C77.8338 56.2679 77.6939 56.0658 77.5177 55.8981C77.3416 55.7304 77.1329 55.6005 76.9046 55.5166C76.6762 55.4326 76.4331 55.3964 76.1903 55.41C75.0003 55.41 74.0703 56.35 74.0703 58.86V63.2701H73.0703V58.7401C73.078 58.2258 73.0546 57.7115 73.0003 57.2C72.9978 56.962 72.9476 56.7268 72.8526 56.5085C72.7576 56.2902 72.6198 56.0931 72.4473 55.929C72.2748 55.7649 72.0711 55.6371 71.8483 55.5531C71.6255 55.4691 71.3882 55.4307 71.1503 55.4401C69.9603 55.4401 69.0303 56.3801 69.0303 58.8901V63.3H68.0303V54.8701H69.0303V56.3201L69.5103 55.3801C69.7649 55.1298 70.069 54.9356 70.4031 54.8099C70.7372 54.6842 71.0939 54.6297 71.4503 54.6501C72.0077 54.6067 72.5623 54.7644 73.0136 55.0946C73.4648 55.4247 73.7829 55.9056 73.9103 56.45L74.5603 55.3801C74.8217 55.122 75.1357 54.9232 75.4808 54.7973C75.8259 54.6713 76.194 54.6211 76.5603 54.6501C77.1981 54.6118 77.825 54.8283 78.3032 55.2521C78.7813 55.6759 79.0717 56.2723 79.1103 56.91C79.1581 57.3818 79.1681 57.8567 79.1403 58.3301V58.3301Z" fill="white"/>
<path d="M89.1002 58.9801C89.1002 62.0401 87.2202 63.5201 85.1002 63.5201C84.2979 63.5459 83.5156 63.2672 82.9102 62.7401L82.3902 61.8401V66.3901H81.4502V54.8201H82.4502V56.4301L83.0002 55.5101C83.3238 55.2157 83.7025 54.9882 84.1144 54.8406C84.5262 54.693 84.9632 54.6283 85.4002 54.6501C87.6902 54.6501 89.1002 56.4801 89.1002 58.9801ZM88.0102 59.1101C88.0102 57.1101 87.0102 55.4401 85.1902 55.4401C83.6902 55.4401 82.3902 56.3401 82.3902 58.8901V59.5201C82.3902 61.9301 83.8402 62.7401 85.0802 62.7401C86.7702 62.7401 88.0102 61.3901 88.0102 59.1101V59.1101Z" fill="white"/>
<path d="M91.6603 61.0698C91.6603 61.4398 91.6603 61.7198 91.6603 61.9798C91.6603 62.5198 91.9303 62.6598 92.6603 62.5798V63.3198C92.3974 63.3398 92.1333 63.3398 91.8703 63.3198C91.7125 63.3523 91.5491 63.3461 91.3941 63.3018C91.2392 63.2575 91.0972 63.1765 90.9804 63.0655C90.8635 62.9545 90.7752 62.8169 90.7229 62.6645C90.6707 62.512 90.6561 62.3492 90.6803 62.1898C90.6803 61.9098 90.6803 61.5698 90.6803 61.0598V51.5898H91.6803L91.6603 61.0698Z" fill="white"/>
<path d="M101 59.3799H94.61C94.72 61.8699 95.98 62.7399 97.35 62.7399C97.9538 62.7528 98.542 62.5476 99.0067 62.1618C99.4714 61.7761 99.7815 61.2358 99.88 60.6399H100.88C100.73 61.4799 100.278 62.2363 99.6098 62.7666C98.9414 63.297 98.1021 63.5649 97.25 63.5199C95.14 63.5199 93.5 62.0599 93.5 59.0899C93.5 56.3799 95.19 54.6499 97.41 54.6499C99.63 54.6499 100.99 56.5299 100.99 58.8499C101.005 59.0262 101.008 59.2032 101 59.3799V59.3799ZM94.61 58.5999H100.03C99.92 56.4299 98.83 55.4399 97.41 55.4399C95.99 55.4399 94.75 56.4999 94.61 58.5999Z" fill="white"/>
<path d="M104.09 60.9898C104.09 61.3398 104.09 61.5198 104.09 61.7398C104.15 62.5498 104.5 62.7398 105.63 62.6198V63.3498C105.3 63.4055 104.965 63.4322 104.63 63.4298C104.44 63.4576 104.246 63.4434 104.061 63.3883C103.877 63.3332 103.707 63.2386 103.563 63.1109C103.42 62.9833 103.305 62.8258 103.229 62.6494C103.152 62.473 103.115 62.282 103.12 62.0898C103.12 61.7998 103.12 61.4798 103.12 61.0098V55.7398H102.04V54.9698H103.12V53.0698H104.12V54.9298H105.73V55.7398H104.12L104.09 60.9898Z" fill="white"/>
<path d="M113.99 59.3799H107.6C107.71 61.8699 108.97 62.7399 110.34 62.7399C110.944 62.7528 111.532 62.5476 111.997 62.1618C112.462 61.7761 112.772 61.2358 112.87 60.6399H113.87C113.718 61.4808 113.264 62.2372 112.594 62.7675C111.924 63.2977 111.084 63.5652 110.23 63.5199C108.13 63.5199 106.49 62.0599 106.49 59.0899C106.49 56.3799 108.18 54.6499 110.39 54.6499C112.6 54.6499 113.98 56.5299 113.98 58.8499C113.995 59.0262 113.998 59.2032 113.99 59.3799ZM107.6 58.5999H113.02C112.9 56.4299 111.82 55.4399 110.4 55.4399C108.98 55.4399 107.74 56.4999 107.6 58.5999Z" fill="white"/>
<path d="M127.88 63.2998H126.88V58.2998H120.45V63.2998H119.45V52.2998H120.45V57.4798H126.89V52.2998H127.89L127.88 63.2998Z" fill="white"/>
<path d="M138.27 63.2998H137.17C136.831 62.3939 136.622 61.4444 136.55 60.4798C136.41 59.3198 135.93 58.4098 134.75 58.3398H131.64V63.3398H130.64V52.3398H133.87C134.371 52.327 134.872 52.3504 135.37 52.4098C135.737 52.4108 136.101 52.4862 136.438 52.6315C136.776 52.7769 137.081 52.9891 137.334 53.2555C137.587 53.5219 137.784 53.8368 137.912 54.1813C138.04 54.5258 138.097 54.8927 138.08 55.2598C138.099 55.8693 137.901 56.4659 137.522 56.9437C137.143 57.4215 136.607 57.7496 136.01 57.8698C136.47 58.1139 136.855 58.48 137.121 58.928C137.387 59.376 137.525 59.8887 137.52 60.4098C137.555 61.4164 137.811 62.4029 138.27 63.2998V63.2998ZM133.91 57.4998C134.39 57.4998 134.66 57.4998 135.02 57.4998C135.297 57.5008 135.572 57.444 135.826 57.3331C136.081 57.2221 136.309 57.0594 136.498 56.8553C136.686 56.6512 136.829 56.4101 136.919 56.1475C137.009 55.8849 137.043 55.6064 137.02 55.3298C137.045 55.0663 137.015 54.8005 136.932 54.5491C136.849 54.2977 136.715 54.0661 136.539 53.8689C136.362 53.6717 136.147 53.5131 135.906 53.4032C135.665 53.2932 135.404 53.2342 135.14 53.2298C134.722 53.1772 134.301 53.1538 133.88 53.1598H131.63V57.5298L133.91 57.4998Z" fill="white"/>
<path d="M143.45 63.2998V52.2998H144.45V63.2998H143.45Z" fill="white"/>
<path d="M153.64 58.5801V63.3001H152.64V58.7401C152.64 58.2601 152.64 57.8901 152.64 57.4601C152.641 57.1825 152.584 56.9078 152.473 56.6533C152.362 56.3989 152.199 56.1703 151.995 55.9822C151.791 55.7941 151.55 55.6505 151.288 55.5606C151.025 55.4707 150.746 55.4365 150.47 55.4601C149.07 55.4601 147.84 56.4601 147.84 59.1101V63.3001H146.84V54.8701H147.84V56.5001L148.29 55.5901C148.595 55.2733 148.964 55.0255 149.373 54.8633C149.782 54.7012 150.221 54.6285 150.66 54.6501C151.025 54.6026 151.396 54.6316 151.75 54.735C152.103 54.8385 152.431 55.0143 152.713 55.2512C152.995 55.4881 153.225 55.7809 153.388 56.1113C153.551 56.4416 153.644 56.8021 153.66 57.1701C153.677 57.6401 153.67 58.1107 153.64 58.5801V58.5801Z" fill="white"/>
<path d="M157.17 60.9898C157.17 61.3398 157.17 61.5198 157.17 61.7398C157.23 62.5498 157.58 62.7398 158.72 62.6198V63.3498C158.39 63.4047 158.055 63.4315 157.72 63.4298C157.529 63.4592 157.334 63.4462 157.149 63.3919C156.963 63.3375 156.792 63.2431 156.647 63.1153C156.502 62.9875 156.387 62.8294 156.31 62.6522C156.233 62.475 156.195 62.283 156.2 62.0898C156.2 61.7998 156.2 61.4798 156.2 61.0098V55.7398H155.11V54.9698H156.2V53.0698H157.2V54.9298H158.81V55.7398H157.2L157.17 60.9898Z" fill="white"/>
<path d="M167.07 59.3799H160.68C160.79 61.8699 162.05 62.7399 163.45 62.7399C164.055 62.7511 164.643 62.5454 165.109 62.1602C165.575 61.775 165.888 61.2357 165.99 60.6399H166.99C166.84 61.4799 166.389 62.2363 165.72 62.7666C165.052 63.297 164.212 63.5649 163.36 63.5199C161.25 63.5199 159.61 62.0599 159.61 59.0899C159.61 56.3799 161.3 54.6499 163.52 54.6499C165.74 54.6499 167.1 56.5299 167.1 58.8499C167.102 59.027 167.092 59.2041 167.07 59.3799ZM160.68 58.5999H166.1C165.99 56.4299 164.9 55.4399 163.49 55.4399C162.08 55.4399 160.82 56.4999 160.68 58.5999V58.5999Z" fill="white"/>
<path d="M169.81 61.0698C169.81 61.4398 169.81 61.7198 169.81 61.9798C169.81 62.5198 170.08 62.6598 170.81 62.5798V63.3198C170.547 63.3398 170.283 63.3398 170.02 63.3198C169.862 63.3523 169.699 63.3461 169.544 63.3018C169.389 63.2575 169.247 63.1765 169.13 63.0655C169.013 62.9545 168.925 62.8169 168.872 62.6645C168.82 62.512 168.805 62.3492 168.83 62.1898C168.83 61.9098 168.83 61.5698 168.83 61.0598V51.5898H169.83L169.81 61.0698Z" fill="white"/>
<path d="M173.3 61.0698C173.3 61.4398 173.3 61.7198 173.3 61.9798C173.3 62.5198 173.57 62.6598 174.3 62.5798V63.3198C174.037 63.3398 173.773 63.3398 173.51 63.3198C173.352 63.3523 173.189 63.3461 173.034 63.3018C172.879 63.2575 172.737 63.1765 172.62 63.0655C172.503 62.9545 172.415 62.8169 172.363 62.6645C172.31 62.512 172.296 62.3492 172.32 62.1898C172.32 61.9098 172.32 61.5698 172.32 61.0598V51.5898H173.32L173.3 61.0698Z" fill="white"/>
<path d="M177.03 53.05C177.03 53.1825 176.991 53.312 176.918 53.4222C176.844 53.5324 176.739 53.6183 176.617 53.669C176.494 53.7197 176.36 53.7329 176.23 53.7071C176.1 53.6812 175.98 53.6174 175.887 53.5237C175.793 53.43 175.729 53.3106 175.703 53.1807C175.677 53.0507 175.691 52.916 175.741 52.7936C175.792 52.6711 175.878 52.5665 175.988 52.4929C176.098 52.4193 176.228 52.38 176.36 52.38C176.449 52.3786 176.537 52.395 176.618 52.4282C176.7 52.4614 176.775 52.5107 176.837 52.5732C176.9 52.6357 176.949 52.7101 176.982 52.792C177.015 52.8739 177.032 52.9616 177.03 53.05V53.05ZM175.87 63.3V54.87H176.87V63.3H175.87Z" fill="white"/>
<path d="M186.23 61.16C186.23 61.99 186.23 62.65 186.23 63.16C186.251 63.653 186.166 64.1448 185.98 64.6021C185.795 65.0595 185.514 65.4717 185.155 65.811C184.797 66.1503 184.37 66.4089 183.904 66.5691C183.437 66.7294 182.941 66.7877 182.45 66.74C180.36 66.74 179.08 65.88 178.88 64.05V63.86H179.88V64.05C180.02 65.29 181.03 65.96 182.45 65.96C182.821 65.9926 183.194 65.9445 183.545 65.8192C183.895 65.6938 184.214 65.4942 184.48 65.2339C184.746 64.9736 184.953 64.6588 185.086 64.3112C185.218 63.9636 185.275 63.5914 185.25 63.22C185.25 62.76 185.25 62.42 185.25 61.98V61.74L184.69 62.66C184.369 62.9555 183.992 63.1839 183.582 63.3316C183.171 63.4793 182.736 63.5433 182.3 63.52C179.94 63.52 178.54 61.69 178.54 59.19C178.54 56.13 180.42 54.65 182.54 54.65C183.334 54.6179 184.11 54.8897 184.71 55.41L185.24 56.32V54.85H186.24L186.23 61.16ZM185.23 59.28V58.65C185.23 56.26 183.78 55.44 182.53 55.44C180.84 55.44 179.6 56.78 179.6 59.06C179.6 61.06 180.6 62.74 182.42 62.74C183.93 62.74 185.24 61.83 185.24 59.28H185.23Z" fill="white"/>
<path d="M195.36 59.3799H188.97C189.08 61.8699 190.34 62.7399 191.71 62.7399C192.314 62.7528 192.902 62.5476 193.367 62.1618C193.832 61.7761 194.142 61.2358 194.24 60.6399H195.24C195.088 61.4808 194.634 62.2372 193.964 62.7675C193.294 63.2977 192.454 63.5652 191.6 63.5199C189.5 63.5199 187.86 62.0599 187.86 59.0899C187.86 56.3799 189.55 54.6499 191.76 54.6499C194.12 54.6499 195.35 56.5299 195.35 58.8499C195.365 59.0262 195.368 59.2032 195.36 59.3799V59.3799ZM188.97 58.5999H194.38C194.27 56.4299 193.19 55.4399 191.77 55.4399C190.35 55.4399 189.11 56.4999 188.97 58.5999Z" fill="white"/>
<path d="M203.98 58.58V63.3H202.98V58.74C202.98 58.26 202.98 57.89 202.98 57.46C202.981 57.1824 202.924 56.9077 202.813 56.6532C202.702 56.3988 202.539 56.1702 202.335 55.9821C202.131 55.794 201.89 55.6504 201.627 55.5605C201.365 55.4706 201.086 55.4364 200.81 55.46C199.41 55.46 198.18 56.46 198.18 59.11V63.3H197.18V54.87H198.18V56.5L198.63 55.59C198.935 55.2732 199.304 55.0254 199.713 54.8632C200.122 54.7011 200.56 54.6284 201 54.65C201.364 54.6056 201.734 54.6367 202.087 54.7414C202.439 54.846 202.766 55.022 203.047 55.2583C203.328 55.4946 203.558 55.7863 203.722 56.1151C203.886 56.444 203.98 56.8031 204 57.17C203.98 57.6 203.98 57.9 203.98 58.58Z" fill="white"/>
<path d="M212.97 57.6302H211.97C211.917 57.014 211.628 56.442 211.165 56.0325C210.701 55.623 210.098 55.4074 209.48 55.4302C208.07 55.4302 206.68 56.5802 206.68 59.0102C206.68 61.6102 207.99 62.7402 209.4 62.7402C209.999 62.7621 210.586 62.5635 211.048 62.182C211.511 61.8005 211.817 61.2626 211.91 60.6702H212.91C212.771 61.5054 212.326 62.2592 211.663 62.7856C211 63.3121 210.165 63.5738 209.32 63.5202C207.22 63.5202 205.58 62.0702 205.58 59.0902C205.58 56.3002 207.38 54.6502 209.5 54.6502C210.35 54.6074 211.184 54.8927 211.83 55.4473C212.476 56.0019 212.884 56.7833 212.97 57.6302V57.6302Z" fill="white"/>
<path d="M221.38 59.3799H214.99C215.1 61.8699 216.36 62.7399 217.73 62.7399C218.334 62.7528 218.922 62.5476 219.387 62.1618C219.851 61.7761 220.161 61.2358 220.26 60.6399H221.26C221.11 61.4799 220.658 62.2363 219.99 62.7666C219.321 63.297 218.482 63.5649 217.63 63.5199C215.52 63.5199 213.88 62.0599 213.88 59.0899C213.88 56.3799 215.57 54.6499 217.79 54.6499C220.01 54.6499 221.37 56.5299 221.37 58.8499C221.385 59.0262 221.388 59.2032 221.38 59.3799V59.3799ZM214.99 58.5999H220.45C220.34 56.4299 219.25 55.4399 217.83 55.4399C216.41 55.4399 215.13 56.4999 214.99 58.5999V58.5999Z" fill="white"/>
<path d="M230.83 53.1198V63.2998H229.83V53.1198H225.83V52.2998H234.83V53.1198H230.83Z" fill="white"/>
<path d="M241.73 59.3799H235.34C235.45 61.8699 236.71 62.7399 238.08 62.7399C238.685 62.7511 239.273 62.5454 239.739 62.1602C240.205 61.775 240.518 61.2357 240.62 60.6399H241.62C241.47 61.4799 241.019 62.2363 240.35 62.7666C239.682 63.297 238.842 63.5649 237.99 63.5199C235.88 63.5199 234.24 62.0599 234.24 59.0899C234.24 56.3799 235.93 54.6499 238.15 54.6499C240.37 54.6499 241.73 56.5299 241.73 58.8499C241.742 59.0264 241.742 59.2034 241.73 59.3799V59.3799ZM235.34 58.5999H240.76C240.65 56.4299 239.56 55.4399 238.14 55.4399C236.72 55.4399 235.45 56.4999 235.34 58.5999V58.5999Z" fill="white"/>
<path d="M250.27 57.6298H249.27C249.217 57.0136 248.928 56.4416 248.465 56.0321C248.001 55.6226 247.398 55.4069 246.78 55.4298C245.36 55.4298 243.98 56.5798 243.98 59.0098C243.98 61.6098 245.28 62.7398 246.7 62.7398C247.298 62.7613 247.883 62.5624 248.344 62.1807C248.805 61.7991 249.11 61.2613 249.2 60.6698H250.2C250.063 61.5041 249.621 62.2578 248.959 62.7844C248.298 63.311 247.464 63.5731 246.62 63.5198C244.51 63.5198 242.87 62.0698 242.87 59.0898C242.87 56.2998 244.67 54.6498 246.79 54.6498C247.643 54.6018 248.481 54.8851 249.129 55.4404C249.778 55.9957 250.186 56.7801 250.27 57.6298V57.6298Z" fill="white"/>
<path d="M258.72 58.5798V63.2998H257.72V58.7398C257.72 58.2598 257.72 57.8898 257.72 57.4598C257.721 57.1822 257.664 56.9074 257.553 56.653C257.442 56.3986 257.279 56.17 257.075 55.9819C256.871 55.7938 256.63 55.6502 256.368 55.5603C256.105 55.4704 255.827 55.4362 255.55 55.4598C254.15 55.4598 252.92 56.4598 252.92 59.1098V63.2998H251.92V51.5098H252.92V56.5098L253.37 55.5998C253.675 55.283 254.044 55.0352 254.453 54.873C254.862 54.7109 255.301 54.6382 255.74 54.6598C256.105 54.6154 256.475 54.6465 256.827 54.7511C257.179 54.8558 257.506 55.0317 257.787 55.2681C258.069 55.5044 258.298 55.796 258.462 56.1249C258.626 56.4538 258.721 56.8128 258.74 57.1798C258.72 57.5998 258.72 57.8998 258.72 58.5798Z" fill="white"/>
<path d="M267.79 58.5798V63.2998H266.79V58.7398C266.79 58.2598 266.79 57.8898 266.79 57.4598C266.791 57.1822 266.734 56.9074 266.623 56.653C266.513 56.3986 266.35 56.17 266.146 55.9819C265.942 55.7938 265.701 55.6502 265.438 55.5603C265.175 55.4704 264.897 55.4362 264.62 55.4598C263.22 55.4598 261.99 56.4598 261.99 59.1098V63.2998H260.99V54.8698H261.99V56.4998L262.44 55.5898C262.745 55.273 263.115 55.0252 263.523 54.863C263.932 54.7009 264.371 54.6282 264.81 54.6498C265.175 54.6039 265.546 54.6339 265.899 54.738C266.251 54.842 266.579 55.0179 266.861 55.2545C267.142 55.4911 267.372 55.7834 267.535 56.1129C267.699 56.4425 267.792 56.8023 267.81 57.1698C267.827 57.6398 267.821 58.1104 267.79 58.5798V58.5798Z" fill="white"/>
<path d="M277.55 59.0899C277.55 61.5599 276.14 63.5199 273.46 63.5199C270.78 63.5199 269.36 61.5199 269.36 59.0899C269.36 56.6599 270.78 54.6499 273.46 54.6499C276.14 54.6499 277.55 56.6099 277.55 59.0899ZM276.47 59.0899C276.47 56.7999 275.21 55.4399 273.47 55.4399C271.73 55.4399 270.47 56.7999 270.47 59.0899C270.47 61.3799 271.71 62.7399 273.45 62.7399C275.19 62.7399 276.45 61.3899 276.45 59.0899H276.47Z" fill="white"/>
<path d="M280.12 61.0698C280.12 61.4398 280.12 61.7198 280.12 61.9798C280.12 62.5198 280.39 62.6598 281.12 62.5798V63.3198C280.86 63.3402 280.6 63.3402 280.34 63.3198C280.182 63.3523 280.019 63.3461 279.864 63.3018C279.709 63.2575 279.567 63.1765 279.45 63.0655C279.333 62.9545 279.245 62.8169 279.193 62.6645C279.14 62.512 279.126 62.3492 279.15 62.1898C279.15 61.9098 279.15 61.5698 279.15 61.0598V51.5898H280.15L280.12 61.0698Z" fill="white"/>
<path d="M290.19 59.0899C290.19 61.5599 288.77 63.5199 286.1 63.5199C283.43 63.5199 282 61.5199 282 59.0899C282 56.6599 283.42 54.6499 286.1 54.6499C288.78 54.6499 290.19 56.6099 290.19 59.0899ZM289.11 59.0899C289.11 56.7999 287.85 55.4399 286.11 55.4399C284.37 55.4399 283.11 56.7999 283.11 59.0899C283.11 61.3799 284.37 62.7399 286.11 62.7399C287.85 62.7399 289.11 61.3899 289.11 59.0899Z" fill="white"/>
<path d="M298.84 61.1602C298.84 61.9902 298.84 62.6502 298.84 63.1602C298.861 63.6551 298.776 64.1487 298.589 64.6076C298.403 65.0665 298.119 65.4798 297.759 65.8195C297.398 66.1591 296.969 66.4172 296.5 66.5761C296.03 66.7349 295.533 66.7909 295.04 66.7402C292.95 66.7402 291.67 65.8802 291.47 64.0502V63.8602H292.47V64.0502C292.61 65.2902 293.62 65.9602 295.04 65.9602C295.411 65.9928 295.784 65.9447 296.134 65.8194C296.485 65.694 296.804 65.4944 297.07 65.2341C297.336 64.9738 297.542 64.659 297.675 64.3114C297.808 63.9638 297.864 63.5916 297.84 63.2202C297.84 62.7602 297.84 62.4202 297.84 61.9802V61.7402L297.28 62.6602C296.959 62.9557 296.582 63.1841 296.172 63.3318C295.761 63.4794 295.325 63.5435 294.89 63.5202C292.53 63.5202 291.13 61.6902 291.13 59.1902C291.13 56.1302 293.01 54.6502 295.13 54.6502C295.923 54.6201 296.699 54.8916 297.3 55.4102L297.83 56.3202V54.8502H298.83L298.84 61.1602ZM297.84 59.2802V58.6502C297.84 56.2602 296.39 55.4402 295.14 55.4402C293.45 55.4402 292.21 56.7802 292.21 59.0602C292.21 61.0602 293.21 62.7402 295.03 62.7402C296.55 62.7402 297.86 61.8302 297.86 59.2802H297.84Z" fill="white"/>
<path d="M304.39 63.7399C303.53 65.9699 302.72 66.6399 301.52 66.6399C301.304 66.6684 301.085 66.6684 300.87 66.6399V65.8299C301.049 65.8437 301.23 65.8437 301.41 65.8299C302.18 65.8299 302.75 65.4299 303.29 64.0799L303.47 63.6299L300.14 54.8799H301.25L303.98 62.5799L306.69 54.8799H307.77L304.39 63.7399Z" fill="white"/>
<path d="M1.83984 46.4401H5.83984C5.83984 46.4401 6.83984 27.7401 16.9698 19.4401C16.9298 19.4101 6.01984 25.4901 1.83984 46.4401Z" fill="white"/>
<path d="M25.2803 1.61V9.61L33.3703 7.53V0C30.6335 0.310333 27.9274 0.848874 25.2803 1.61V1.61Z" fill="white"/>
<path d="M23.9696 9.91981V2.0498C21.4256 2.77791 18.9576 3.74905 16.5996 4.9498V12.6098C18.9566 11.4607 21.4265 10.5592 23.9696 9.91981V9.91981Z" fill="white"/>
<path d="M15.2896 13.2799V5.6499C8.52957 9.4199 3.66957 14.7399 1.44957 20.2199C-1.75043 27.7399 1.44957 35.7399 1.44957 35.7399C0.579566 23.6399 8.57957 16.8299 15.2896 13.2799Z" fill="white"/>
<path d="M9.4502 38.91C9.4502 38.91 25.7402 38.91 31.5202 20H24.0902C22.4502 26.98 18.5802 35.96 9.4502 38.91Z" fill="white"/>
<path d="M33.3699 9.18994L25.2799 11.0299C25.2029 13.6013 24.9017 16.161 24.3799 18.6799H31.8699C32.676 15.5727 33.1784 12.3944 33.3699 9.18994V9.18994Z" fill="white"/>
</g>
<defs>
<clipPath id="clip0">
<rect width="308.18" height="66.71" fill="white"/>
</clipPath>
</defs>
</svg>
