<svg width="377" height="114" viewBox="0 0 377 114" fill="none" xmlns="http://www.w3.org/2000/svg">
<g clip-path="url(#clip0)">
<path d="M368.48 70.29C368.48 69.4989 368.715 68.7256 369.155 68.0678C369.594 67.41 370.219 66.8973 370.95 66.5945C371.681 66.2918 372.485 66.2126 373.261 66.3669C374.037 66.5212 374.749 66.9022 375.309 67.4616C375.868 68.021 376.249 68.7338 376.404 69.5097C376.558 70.2856 376.479 71.0899 376.176 71.8208C375.873 72.5517 375.361 73.1764 374.703 73.6159C374.045 74.0554 373.272 74.29 372.48 74.29C371.42 74.29 370.402 73.8686 369.652 73.1185C368.902 72.3683 368.48 71.3509 368.48 70.29Z" fill="white"/>
<path d="M369.24 53.8398L370.24 55.7298C369.912 56.007 369.651 56.3556 369.477 56.749C369.304 57.1424 369.223 57.5703 369.24 57.9998C369.22 58.7406 369.493 59.4595 370 59.9998C370.25 60.2609 370.551 60.4662 370.886 60.6023C371.22 60.7385 371.58 60.8024 371.94 60.7898C372.29 60.8041 372.638 60.7436 372.962 60.6126C373.286 60.4815 373.579 60.2829 373.82 60.0298C374.071 59.7634 374.265 59.4486 374.391 59.1048C374.516 58.761 374.571 58.3953 374.55 58.0298C374.579 57.5843 374.503 57.1383 374.33 56.727C374.156 56.3157 373.889 55.9504 373.55 55.6598L374.79 53.9798C375.34 54.4604 375.788 55.0452 376.109 55.7004C376.431 56.3556 376.619 57.0681 376.662 57.7966C376.706 58.525 376.605 59.2549 376.364 59.9439C376.123 60.6328 375.748 61.2671 375.26 61.8098C374.518 62.5379 373.555 63.0002 372.523 63.125C371.49 63.2498 370.445 63.03 369.55 62.4998C368.808 62.0675 368.205 61.4328 367.81 60.6698C367.384 59.8633 367.167 58.9622 367.18 58.0498C367.167 57.2119 367.352 56.3827 367.72 55.6298C368.066 54.9132 368.589 54.297 369.24 53.8398Z" fill="white"/>
<path d="M367.18 47.5599C367.181 46.7179 367.402 45.8907 367.82 45.1599C368.228 44.428 368.83 43.8226 369.56 43.4099C370.276 42.9928 371.091 42.7753 371.92 42.7799C372.758 42.7762 373.582 42.9935 374.31 43.4099C375.043 43.815 375.652 44.4133 376.07 45.1399C376.488 45.8771 376.702 46.7124 376.69 47.5599C376.699 48.1768 376.582 48.7891 376.345 49.3586C376.107 49.9281 375.755 50.4426 375.31 50.8699C374.647 51.527 373.805 51.9746 372.889 52.157C371.974 52.3395 371.025 52.2486 370.16 51.8959C369.296 51.5431 368.555 50.944 368.028 50.173C367.502 49.402 367.214 48.4933 367.2 47.5599H367.18ZM369.31 47.5599C369.309 47.8838 369.376 48.2044 369.507 48.5007C369.638 48.797 369.829 49.0625 370.07 49.2799C370.321 49.5166 370.616 49.7012 370.939 49.823C371.261 49.9449 371.605 50.0016 371.95 49.9899C372.653 50.0155 373.339 49.7642 373.86 49.2899C374.098 49.0641 374.286 48.7907 374.412 48.4875C374.538 48.1843 374.598 47.858 374.59 47.5299C374.595 47.1997 374.532 46.872 374.405 46.5673C374.278 46.2627 374.089 45.9878 373.85 45.7599C373.32 45.311 372.649 45.0646 371.955 45.0646C371.261 45.0646 370.589 45.311 370.06 45.7599C369.818 45.9861 369.626 46.2605 369.497 46.5654C369.368 46.8703 369.304 47.1988 369.31 47.5299V47.5599Z" fill="white"/>
<path d="M367.419 40.9802V38.6802H368.419C368.019 38.3187 367.695 37.8799 367.469 37.3902C367.254 36.902 367.145 36.3737 367.149 35.8402C367.142 35.3008 367.288 34.7704 367.569 34.3102C367.861 33.8398 368.281 33.4619 368.779 33.2202C368.271 32.8847 367.855 32.4275 367.569 31.8902C367.288 31.3645 367.143 30.7764 367.149 30.1802C367.137 29.5826 367.293 28.9937 367.599 28.4802C367.883 28.0396 368.29 27.692 368.769 27.4802C369.525 27.2267 370.323 27.1181 371.119 27.1602H376.409V29.4502H371.829C371.114 29.3829 370.394 29.5144 369.749 29.8302C369.569 29.9581 369.425 30.1301 369.33 30.3297C369.236 30.5293 369.194 30.7499 369.209 30.9702C369.212 31.3298 369.327 31.6796 369.539 31.9702C369.772 32.2853 370.091 32.5252 370.459 32.6602C371.069 32.8374 371.705 32.9118 372.339 32.8802H376.409V35.1602H372.069C371.477 35.1355 370.884 35.1961 370.309 35.3402C369.991 35.4298 369.711 35.6191 369.509 35.8802C369.325 36.1286 369.23 36.4314 369.239 36.7402C369.242 37.1014 369.361 37.4521 369.579 37.7402C369.813 38.0621 370.142 38.3032 370.519 38.4302C371.139 38.6114 371.784 38.6891 372.429 38.6602H376.429V40.9802H367.419Z" fill="white"/>
<path d="M135.9 19.3801L142.81 27.3201H156.47L143.91 14.1501C142.508 12.7513 140.769 11.7385 138.86 11.2101C136.879 10.5303 134.804 10.1659 132.71 10.1301C130.159 10.0778 127.622 10.5228 125.24 11.4401V16.8601C126.22 16.2359 127.359 15.9094 128.52 15.9201C130.95 15.9201 133.41 17.0801 135.9 19.3801Z" fill="white"/>
<path d="M352.069 27.4099C352.069 27.4099 347.449 18.1999 340.559 14.2399C336.689 12.0199 332.849 10.4999 328.559 10.4999C325.639 10.4235 322.75 11.1131 320.179 12.4999C318.888 13.1986 317.815 14.239 317.076 15.5072C316.337 16.7753 315.961 18.2223 315.989 19.6899C316.031 21.1536 316.368 22.5939 316.977 23.9252C317.587 25.2565 318.458 26.4517 319.539 27.4399H99.5391V32.9799H114.949C117.909 34.3132 119.389 36.8965 119.389 40.7299C119.448 41.9024 119.261 43.0743 118.839 44.1698C118.417 45.2654 117.77 46.2602 116.939 47.0899C115.189 48.6881 112.876 49.5261 110.509 49.4199C107.005 49.2664 103.583 48.3083 100.509 46.6199V55.3999H102.069C104.069 55.3999 106.252 57.2999 108.619 61.0999C112.199 66.7699 114.619 70.2799 115.909 71.6599C117.544 73.4626 119.541 74.9009 121.768 75.8813C123.996 76.8616 126.405 77.362 128.839 77.3499C131.911 77.286 134.951 76.7185 137.839 75.6699L140.299 67.6699C136.966 69.6699 134.326 70.6699 132.379 70.6699C129.579 70.6699 126.696 67.9299 123.729 62.4499C122.089 59.4632 121.179 57.8432 120.999 57.5899C119.676 55.9198 117.86 54.7092 115.809 54.1299C119.541 54.09 123.215 53.1972 126.549 51.5199C130.229 49.4599 132.069 46.4365 132.069 42.4499C132.05 40.3795 131.485 38.351 130.429 36.5699C130.012 35.7036 129.415 34.9357 128.679 34.3168C127.943 33.698 127.084 33.2423 126.159 32.9799H145.639V73.9799H157.289V32.9799H204.639V38.3999H178.069V44.1899H183.399C184.384 44.6276 185.263 45.2707 185.979 46.0761C186.695 46.8815 187.23 47.8307 187.549 48.8599C188.067 51.0324 188.339 53.2565 188.359 55.4899C188.542 58.3578 187.878 61.2163 186.449 63.7099C185.816 64.9369 184.852 65.9619 183.666 66.6689C182.48 67.3759 181.12 67.7365 179.739 67.7099C174.539 67.7099 170.789 63.6932 168.489 55.6599L162.679 65.8399C164.793 69.0724 167.842 71.584 171.419 73.0399C174.219 74.1599 177.982 74.6899 182.709 74.6299C187.481 74.6411 192.083 72.8561 195.599 69.6299C197.357 68.0709 198.753 66.1457 199.688 63.9897C200.622 61.8336 201.073 59.4989 201.009 57.1499C201.009 52.0499 198.886 47.7165 194.639 44.1499H204.639V73.9799H216.739V32.9799H236.139C240.872 34.9132 243.179 40.9132 243.059 50.9799C242.986 60.0065 241.192 64.5832 237.679 64.7099C234.166 64.8365 232.436 62.4699 232.489 57.6099C232.439 56.5623 232.616 55.5163 233.01 54.5442C233.404 53.5721 234.004 52.6971 234.769 51.9799C235.58 51.3001 236.531 50.8085 237.555 50.5405C238.579 50.2725 239.649 50.2347 240.689 50.4299L237.769 44.9799C233.222 44.7332 229.642 45.6032 227.029 47.5899C224.056 49.7699 222.599 53.1332 222.659 57.6799C222.719 62.0399 224.146 65.4032 226.939 67.7699C229.546 70.0099 233.036 71.0999 237.409 71.0399C248.456 70.7932 253.979 63.7932 253.979 50.0399C253.979 40.2599 251.702 34.5932 247.149 33.0399H257.149V73.9799H268.979V32.9799H276.909V73.9799H288.559V32.9799H308.789C311.749 34.3132 313.229 36.8965 313.229 40.7299C313.288 41.9014 313.101 43.0724 312.681 44.1676C312.261 45.2629 311.616 46.2582 310.789 47.0899C309.033 48.6848 306.719 49.5222 304.349 49.4199C300.845 49.2689 297.422 48.3106 294.349 46.6199V55.3999H295.799C297.799 55.3999 299.986 57.2999 302.359 61.0999C305.939 66.7699 308.359 70.2799 309.639 71.6599C311.274 73.4626 313.271 74.9009 315.498 75.8813C317.726 76.8616 320.135 77.362 322.569 77.3499C325.641 77.2874 328.682 76.7199 331.569 75.6699L334.029 67.6699C330.696 69.6699 328.056 70.6699 326.109 70.6699C323.316 70.6699 320.432 67.9299 317.459 62.4499C315.866 59.4699 314.979 57.8499 314.799 57.5899C313.479 55.9158 311.662 54.7042 309.609 54.1299C313.341 54.09 317.015 53.1972 320.349 51.5199C324.062 49.4599 325.916 46.4365 325.909 42.4499C325.886 40.3802 325.32 38.3528 324.269 36.5699C323.85 35.7032 323.251 34.9353 322.513 34.3165C321.776 33.6978 320.915 33.2422 319.989 32.9799H340.659V73.9799H352.309V32.9799H358.679V27.4099H352.069ZM338.289 27.4099H332.459C331.196 26.3515 330.01 25.2053 328.909 23.9799C327.815 22.8488 327.141 21.3772 326.999 19.8099C326.999 18.2699 327.999 17.4099 330.089 17.2199C332.342 16.9732 334.559 18.0632 336.739 20.4899C338.559 22.3824 339.725 24.8071 340.069 27.4099H338.289Z" fill="white"/>
<path d="M34.7293 2.37998L34.2193 1.97998L34.0293 2.18998L34.7293 2.37998Z" fill="white"/>
<path d="M27.3203 64.98L25.8203 66.16C26.1042 66.7392 26.418 67.3033 26.7603 67.85C26.8272 67.9718 26.8745 68.1034 26.9003 68.24C26.9856 67.147 27.1258 66.0589 27.3203 64.98Z" fill="white"/>
<path d="M27.5195 15.5698C27.8106 16.1933 28.2543 16.7333 28.8095 17.1398C28.9676 16.7545 29.2143 16.412 29.5295 16.1398L27.5195 15.5698Z" fill="white"/>
<path d="M24.3406 71.19L18.7806 64.08C18.3106 63.98 14.7806 65.87 13.7806 66.88C13.1006 67.6327 12.5468 68.4905 12.1406 69.42L14.4906 68.89L13.2506 70.89L15.4006 70.28L14.4006 72.06L16.6506 71.68L15.6506 73.5L17.4906 72.78L16.4906 74.78L18.6706 74.05L17.6706 76.05C20.2206 75.86 24.3406 71.19 24.3406 71.19Z" fill="white"/>
<path d="M37.5002 21.3002C37.5161 20.9522 37.4016 20.6108 37.1793 20.3426C36.9569 20.0745 36.6425 19.8989 36.2976 19.8502C35.9526 19.8015 35.6019 19.8831 35.314 20.0791C35.026 20.2751 34.8214 20.5714 34.7402 20.9102C36.0702 20.6802 36.5702 21.1802 37.5002 21.3002Z" fill="white"/>
<path d="M36.7098 23.6698V22.0898C36.609 21.9737 36.4854 21.8796 36.3467 21.8134C36.208 21.7472 36.0572 21.7102 35.9035 21.7048C35.7499 21.6994 35.5968 21.7257 35.4538 21.782C35.3108 21.8383 35.1809 21.9235 35.0722 22.0321C34.9635 22.1408 34.8783 22.2707 34.822 22.4138C34.7657 22.5568 34.7394 22.7099 34.7448 22.8635C34.7502 23.0171 34.7872 23.168 34.8534 23.3067C34.9197 23.4454 35.0138 23.569 35.1298 23.6698H36.7098Z" fill="white"/>
<path d="M45.7405 19.8099C45.7595 19.4607 45.6473 19.1171 45.4257 18.8465C45.2042 18.576 44.8894 18.3981 44.5434 18.348C44.1973 18.2978 43.845 18.379 43.5557 18.5755C43.2665 18.772 43.0613 19.0697 42.9805 19.4099C44.2605 19.1899 44.8105 19.6799 45.7405 19.8099Z" fill="white"/>
<path d="M43.7902 22.1801H45.3602V20.6001C45.2612 20.4782 45.1376 20.3785 44.9974 20.3075C44.8573 20.2365 44.7038 20.1958 44.5469 20.1879C44.3901 20.1801 44.2333 20.2053 44.0868 20.262C43.9403 20.3188 43.8073 20.4057 43.6966 20.5171C43.5859 20.6285 43.4999 20.762 43.4441 20.9088C43.3883 21.0557 43.364 21.2126 43.3729 21.3695C43.3817 21.5263 43.4234 21.6795 43.4953 21.8192C43.5672 21.9589 43.6677 22.0818 43.7902 22.1801Z" fill="white"/>
<path d="M37.0702 28.13C35.8602 28.62 40.3902 32.13 44.5702 30.13C45.4048 29.7458 46.161 29.2101 46.8002 28.55C47.1502 27.48 46.1202 28.27 44.7302 29.34C43.4302 30.2 38.9202 29.87 37.0702 28.13Z" fill="white"/>
<path d="M26.4492 30.3801C26.9192 32.1501 29.5792 31.7201 31.1892 32.3801C30.9992 30.4401 27.9392 29.7201 26.4492 30.3801Z" fill="white"/>
<path d="M42.6393 35.5101C42.3893 36.9601 46.0193 36.5101 45.3893 35.1201C44.0693 34.8901 43.5593 35.3801 42.6393 35.5101Z" fill="white"/>
<path d="M69.0692 63.14C69.1792 62.14 68.5192 61.84 67.4792 61.96C67.1692 63.37 68.3292 63.91 69.0692 63.14Z" fill="white"/>
<path d="M46.9704 67.8802C47.1404 67.0002 47.1804 63.3302 45.7904 62.7402C45.4104 64.4602 44.8504 67.6102 46.9704 67.8802Z" fill="white"/>
<path d="M64.3397 64.7201V63.1401H62.7597C62.4497 64.5001 62.9797 65.0301 64.3397 64.7201Z" fill="white"/>
<path d="M60.3892 64.3198H59.5992C59.5992 64.5598 59.5392 64.7898 59.1992 64.7198V65.5098C59.4492 65.5098 59.6692 65.5698 59.5992 65.8998H60.3892C60.3892 65.6598 60.4492 65.4398 60.7892 65.5098V64.7198C60.5492 64.6998 60.3192 64.6598 60.3892 64.3198Z" fill="white"/>
<path d="M40.5605 19.2499C40.5848 19.1439 40.6182 19.0402 40.6605 18.9399L40.5605 19.2499Z" fill="white"/>
<path d="M69.8708 59.19C69.125 58.595 68.3286 58.0663 67.4908 57.61C67.1908 55.99 68.1008 55.61 67.8908 54.06C65.3708 53.43 64.5008 51.14 64.3408 48.14C62.7708 46.86 63.4008 50.42 61.5708 50.14C63.4708 46.51 68.3708 45.88 70.6508 42.63C73.274 43.8562 75.7838 45.3119 78.1508 46.98C80.1508 46.43 80.6708 44.49 81.7008 43.03C80.0008 40.53 77.1608 39.16 75.7808 36.32C77.3208 33.52 80.0708 31.92 81.3108 28.82C80.3767 27.6178 79.1562 26.6689 77.7608 26.06C75.6908 28.21 74.1908 30.92 71.8408 32.77C70.4108 32.49 70.7108 30.48 69.0808 30.4C66.8008 31.68 66.0808 34.51 63.9408 35.93C62.8308 34.66 60.7508 34.38 60.3908 32.37C62.8608 30.1 64.7008 27.21 68.2908 26.06C68.7103 26.5723 69.2665 26.9552 69.8949 27.1641C70.5233 27.3729 71.198 27.3993 71.8408 27.24C74.9808 21.16 67.6608 16.13 61.1808 15.8C58.2808 18.04 61.5008 20.53 62.7608 22.11C61.7008 24.21 61.1908 26.87 59.6008 28.43C62.0708 21.51 56.9908 15.98 52.9008 18.98C48.2808 22.31 54.4408 35.44 50.9008 41.08C49.0318 40.3319 47.3933 39.1039 46.1508 37.52C50.6308 32.28 47.5908 21.6 45.7108 14.64C44.2508 14.26 47.5608 12.77 47.0208 11.47C46.0208 9.56998 42.9608 7.62998 40.2108 5.59998C37.8208 3.77998 35.6708 1.97998 35.3908 -0.0200195C31.9808 0.78998 22.9008 12.25 22.5008 16.98C22.1208 21.45 26.8308 24.31 26.0508 28.43C25.4408 29.17 24.5208 27.86 23.6908 28.82C23.0408 30.93 25.9008 31.59 24.4808 33.16C20.9008 29.63 17.7008 25.73 16.9808 19.35C17.8208 17.69 20.0808 17.46 20.9208 15.8C22.4108 7.09998 11.5508 9.79998 13.4308 15.8C4.64078 16.93 5.87078 31.8 11.0508 35.93C13.1108 35.93 12.5708 34.28 13.0508 33.56C13.3608 34.77 13.8408 34.82 15.0508 34.35C16.5408 32.43 12.7608 30.71 14.2608 28.82C17.8608 31.41 19.3408 36.11 21.3708 40.27C20.0708 40.12 20.5708 38.17 19.0008 38.27C16.8208 39.27 14.0008 39.6 11.9008 40.64C11.5008 42.19 12.7708 42.93 11.9008 43.8C6.17078 45.18 1.37078 47.49 0.0507812 53.27C5.24078 60.91 16.9108 56.27 25.7108 54.85C28.0308 57.34 26.1608 59.04 25.7108 60.77C26.2308 60.96 27.4008 60.49 27.6008 61.01C26.3736 61.9099 25.1952 62.8746 24.0708 63.9L22.6308 62.57C22.6308 62.57 21.7508 61.74 19.5308 63.2L25.2508 70.74L26.7508 69.56C26.8352 69.4399 26.9026 69.3086 26.9508 69.17C26.9335 70.1052 27.187 71.0255 27.6808 71.82C24.5908 74.82 21.2908 77.56 18.6808 81.04C14.6308 77.72 5.16078 78.74 4.84078 84.64C4.79078 85.49 5.26078 86.18 4.98078 87.32C5.08078 87.7 5.76078 87.48 5.69078 88.03C6.23078 92.31 6.69078 96.68 7.10078 101.03H18.2708C18.3508 99.94 18.4808 98.91 18.5808 97.85C19.0908 99.63 20.5808 101.53 20.9208 103.36C13.4608 104.36 4.72078 103.99 0.400782 108.09C9.18078 110.47 21.4008 112.85 31.9708 110.85C34.5008 111.77 36.6108 114.71 40.2608 113.22C40.8857 112.087 41.2776 110.841 41.4132 109.555C41.5489 108.268 41.4257 106.968 41.0508 105.73C46.7708 104.23 52.3608 106.14 56.4408 104.14C55.6708 101.5 53.6508 100.14 52.5008 97.83C52.3508 96.37 54.1008 96.83 53.6808 95.07C52.6808 94.01 50.1608 94.38 50.1308 92.31C53.1308 90.1 60.0608 84.43 60.3908 81.26C60.9808 75.54 52.6308 72.14 54.0808 65.47C54.5808 66.02 55.9408 65.71 56.4408 66.26C56.2708 67.4 55.0508 67.49 55.2608 69.02C66.0908 78.58 75.9208 89.15 87.2608 98.22C93.8808 95.09 88.5108 89.72 85.6808 85.22C80.2908 76.68 73.6308 66.84 69.8708 59.19ZM63.5508 51.3C63.9408 52.76 65.2808 53.3 65.9208 54.46C65.8108 60.34 70.5708 61.38 71.8408 65.9C67.5208 62.04 62.5808 66.08 58.0308 67.48C57.2608 66 58.9308 65.4 57.6308 63.93C64.2908 64.41 65.6308 55.53 61.1808 52.48C62.2108 52.33 62.3708 51.3 63.5508 51.3ZM55.6608 55.25C56.7308 52.77 59.0408 51.53 58.8108 47.75C59.7308 47.63 59.2508 48.89 60.0008 48.93C59.7408 52.23 58.5108 54.55 55.6608 55.25ZM56.4408 60.38C55.3108 60.32 55.7208 58.73 55.6608 57.61C56.7708 58.1 56.9608 59.23 56.4408 60.38ZM54.4408 24.46C55.9908 24.71 57.3008 25.64 58.7808 24.85C56.6308 33.75 58.5108 46.69 52.4708 51.69C52.0708 43.06 55.0708 34.58 54.4708 24.46H54.4408ZM58.3908 35.91C60.3908 35.91 60.7808 37.47 62.3908 37.91C61.6308 40.44 59.6608 41.77 58.3908 43.83C57.2108 41.53 58.9308 38.79 58.4208 35.91H58.3908ZM61.5708 57.98C60.2208 56.98 60.5708 56.15 59.5708 54.43C61.6308 52.89 63.3608 56.85 61.5708 57.98ZM57.6308 55.61C59.0035 56.6566 60.0904 58.0323 60.7908 59.61C59.3108 59.61 59.6608 60.05 58.4208 59.61C58.1308 58.53 59.2008 58.81 59.2008 58.03C58.2908 57.61 56.2808 57.11 57.6308 55.64V55.61ZM66.3108 44.98C65.5008 43.88 67.8708 42.62 68.3108 41.43C69.0708 42.53 66.7208 43.8 66.3108 44.98ZM79.7308 29.2C79.5199 29.2132 79.3086 29.1813 79.1109 29.1066C78.9132 29.0318 78.7337 28.9159 78.5843 28.7665C78.4349 28.617 78.3189 28.4375 78.2442 28.2399C78.1694 28.0422 78.1376 27.8309 78.1508 27.62C78.3621 27.6051 78.5741 27.6358 78.7725 27.71C78.971 27.7842 79.1512 27.9 79.3009 28.0498C79.4507 28.1996 79.5666 28.3798 79.6408 28.5782C79.7149 28.7766 79.7456 28.9887 79.7308 29.2ZM78.5508 29.59C76.9208 31.25 76.1708 33.79 73.8108 34.72C73.9108 33.25 76.5108 29.13 78.5508 29.59ZM76.5508 28.41C77.0708 29.98 74.2308 31.58 73.4208 33.14C73.1508 31.82 76.0708 30.23 76.5708 28.41H76.5508ZM64.3408 38.27C65.1608 38.5 65.6108 39.1 66.3408 39.46C67.4508 38.95 65.1008 38.64 65.5508 37.46C65.3408 36.07 66.9508 36.46 66.7408 35.1C68.1808 35.1 68.5108 36.22 69.5008 36.68C69.5708 35.29 68.1708 35.38 67.9208 34.31C67.9208 33.11 68.7508 32.77 69.1108 31.94C70.8108 32.34 71.7008 33.55 72.6508 34.7C72.5608 36.19 71.1708 36.37 71.0808 37.86C72.7708 37.97 72.3708 36 73.8408 35.86C74.0115 36.4178 74.3171 36.925 74.7304 37.3366C75.1438 37.7482 75.6522 38.0516 76.2108 38.22C76.2708 39.22 75.5908 39.45 75.4208 40.22C77.9508 38.39 78.0308 42.22 80.5508 42.58C80.5508 44.03 79.4308 44.36 78.9708 45.35C75.3008 43.89 72.3408 41.72 69.1108 39.82C66.1108 42.25 64.0108 45.52 61.6008 48.5C60.5308 48 60.4708 46.5 59.2308 46.14C59.6308 44.93 60.2908 46.59 60.8208 46.53C61.6808 46.27 60.0708 45.22 59.6308 44.95C60.0408 43.52 61.7308 43.37 62.0008 41.8C62.7908 41.8 62.5008 42.87 63.5808 42.58C64.5808 42.01 62.1308 41.7 62.7908 40.22C64.0008 40.3 64.1208 39.23 64.3408 38.27ZM67.8908 21.27C67.5708 22.77 65.2808 21.88 65.5208 20.48C66.3508 19.68 67.0708 20.98 67.8908 21.3V21.27ZM65.1308 25.27C64.5708 26.27 64.2108 27.5 62.7608 27.64C62.5908 27.29 62.4108 26.93 61.9708 26.85C61.9808 24.98 63.9308 23.66 65.1308 25.25V25.27ZM61.9708 27.98C61.6408 29.76 59.9708 30.15 59.6008 31.93C58.6208 30.43 60.4808 28.38 61.9708 27.98ZM63.5508 37.45C61.9408 35.77 58.9408 35.45 58.8108 32.32C59.9108 34.55 62.9308 34.81 63.5508 37.48V37.45ZM52.5508 20.88C54.0308 16.95 62.4008 21.55 57.6808 23.64C57.8816 22.3991 57.5988 21.1286 56.8908 20.09C52.2608 19.41 53.6408 24.74 53.3308 28.38C51.6308 27.3 52.9008 23.27 52.5008 20.91L52.5508 20.88ZM51.3108 61.56C51.5508 63.96 52.7908 65.35 52.9008 67.88C47.6341 68.4 42.2374 68.7933 36.7108 69.06C36.4608 67.99 37.2108 65.93 36.3108 65.51C36.9508 64.51 38.2208 66.21 39.0808 66.3C41.7408 65.79 42.7808 63.68 44.2108 61.96C46.0708 62.52 49.0708 61.81 51.3108 61.56ZM35.1308 69.06H28.8108V63.53C30.1008 61.53 34.6508 64.98 34.7408 61.53C35.5408 61.78 34.8408 63.53 36.3108 63.11C34.4408 64.65 35.5908 65.61 35.1308 69.06ZM31.9708 52.88C37.2908 51.19 39.4408 55.53 41.4508 58.4C39.4508 58.67 38.8308 60.26 38.2808 61.96C35.3408 59.77 33.9708 55.98 31.9708 52.88ZM50.1308 58.8C48.3208 59.03 46.6808 58.56 46.1308 60.8C44.0108 56.88 38.6008 56.23 39.4308 49.35C41.8308 49.66 43.1208 48.84 45.3408 48.96C45.1608 45.32 44.5708 42.11 44.5608 38.3C47.0327 44.9511 48.897 51.8125 50.1308 58.8ZM44.5308 11.8L29.5308 7.33998L30.0708 6.77998L45.8308 11.48C45.9408 11.58 46.0708 11.68 46.1908 11.77C45.6408 11.77 45.0708 11.79 44.5308 11.83V11.8ZM29.2208 21.3C29.4179 22.4969 29.3403 23.7229 28.9938 24.8854C28.6474 26.0479 28.041 27.1163 27.2208 28.01C27.9408 25.82 28.5008 23.48 29.2208 21.3ZM28.0708 20.91C29.1808 21.66 27.5208 22.97 27.6708 24.06C25.9208 23.5 27.5308 21.62 28.0708 20.91ZM29.5708 16.17C29.2555 16.4421 29.0089 16.7847 28.8508 17.17C28.2956 16.7635 27.8519 16.2235 27.5608 15.6L29.5708 16.17ZM30.5608 15.5L26.5608 14.31C26.3933 14.1502 26.1955 14.0254 25.9792 13.943C25.7628 13.8605 25.5322 13.8221 25.3008 13.83C25.3938 13.5648 25.5075 13.3074 25.6408 13.06L31.7108 14.88C31.3006 15.0553 30.9001 15.2522 30.5108 15.47L30.5608 15.5ZM33.0708 14.26L26.0708 12.18C26.2408 11.9 26.4208 11.61 26.6208 11.31L34.6208 13.7C34.0708 13.88 33.5408 14.06 33.0708 14.26ZM36.3408 13.2L27.1808 10.48C27.3708 10.23 27.5508 9.96998 27.7508 9.70998L38.0708 12.78C37.4574 12.9133 36.8708 13.0533 36.3108 13.2H36.3408ZM40.0708 12.38L28.3608 8.88998L28.9308 8.14998L42.0708 12.06C41.3708 12.15 40.7008 12.26 40.0708 12.38ZM40.5908 7.24998L31.8608 4.64998C32.0308 4.46998 32.1808 4.27998 32.3308 4.10998L39.4308 6.28998C39.7708 6.60998 40.1508 6.97998 40.5508 7.24998H40.5908ZM37.5308 4.70998L33.0208 3.32998L33.3608 2.93998L36.6108 3.93998L37.5308 4.70998ZM34.0708 2.15998L34.2608 1.94998L34.7708 2.37998L34.0708 2.15998ZM31.1908 5.43998L42.4908 8.81998L43.8208 9.88998L30.7008 5.97998L31.1908 5.43998ZM26.0708 20.91C25.5708 19.44 23.8108 17.57 24.5008 16.17C26.1508 16.5 25.8408 18.78 28.0508 18.54C27.4108 19.37 27.3208 20.73 26.0708 20.91ZM29.6308 29.59C29.0708 26.43 33.2208 21.36 30.8108 17.75C32.8108 12.23 45.5008 13.32 44.3808 13.8C44.5508 14.56 45.3808 14.8 46.0008 18.3C46.0008 18.3 49.7508 30.84 46.2008 36.3C43.0708 38.3 39.2808 36.13 36.7308 35.12C36.6708 36.36 37.7308 36.47 38.7308 36.7C36.8508 37.77 35.4708 34.96 33.6008 34.7C34.6008 38.31 39.1408 39.14 43.0608 38.65C42.3359 40.1931 41.2565 41.5432 39.9108 42.59C37.6008 41.36 35.3908 40.02 33.2008 38.65C33.5008 36.51 32.5808 35.59 32.8008 33.52C28.8508 34.79 26.2308 32.15 24.9108 29.52L29.6308 29.59ZM33.6308 42.59C32.3208 44 31.0908 41.99 31.6308 40.23C33.2308 40.05 32.6608 42.06 33.5608 42.61L33.6308 42.59ZM30.8608 35.89C31.1208 37.59 30.1808 38.1 29.6808 39.04C27.6808 38.47 26.3108 36.53 27.6808 34.7C28.647 35.2651 29.6967 35.6735 30.7908 35.91L30.8608 35.89ZM19.3408 14.98C17.5408 14.81 16.2608 14.12 16.1908 12.22C17.1808 9.23998 21.2308 12.74 19.3408 14.98ZM18.9508 15.77C17.5608 17.24 14.9508 16.01 15.0008 13.77C16.5608 14.22 16.8308 15.92 18.9508 15.78V15.77ZM12.6408 25.64C12.3286 25.66 12.0167 25.5964 11.7372 25.4558C11.4577 25.3152 11.2208 25.1026 11.0508 24.84C8.86078 25.84 9.19078 28 9.48078 30.76C6.90078 26.29 9.22078 19.76 11.8508 16.95C13.2208 17.27 13.3708 16.36 14.6108 16.56C14.7408 18.56 13.1108 18.74 13.4308 20.9C14.7008 21.25 13.9808 19.61 14.6108 19.32C15.3708 19.48 14.6108 21.13 16.1908 20.5C14.8508 22.07 12.8808 22.98 12.6408 25.65V25.64ZM20.9208 35.9C18.9208 32.52 13.9208 27.37 15.7908 24.45C20.9208 30.6016 25.6665 37.0639 30.0008 43.8C28.3008 43.8 28.5508 45.8 26.8408 45.8C24.9508 43.36 23.2008 39.81 20.9208 35.91V35.9ZM26.8408 52.9C20.3808 50.33 8.37078 59.9 1.19078 53.29C1.35078 50.03 6.78078 46.29 10.2608 45.8C11.6608 45.6 14.5908 45.06 14.2108 47.8C11.6608 47.74 9.12078 47.71 7.51078 48.58C13.3693 49.7104 19.3076 50.3791 25.2708 50.58C27.9708 47.08 30.3508 43.58 35.9208 43.87C36.6108 43.96 36.8208 44.55 36.7108 45.45C35.6008 46.51 35.0908 44.75 33.5608 45.05C33.5608 47.31 36.1608 46.91 37.5008 47.82C37.2908 49.34 38.2108 49.74 37.8908 51.37C33.6608 49.84 29.9708 51.98 26.8408 52.88V52.9ZM30.0008 53.69C32.3208 55.06 33.2208 57.83 34.3408 60.4C34.0267 60.2574 33.6857 60.1837 33.3408 60.1837C32.9958 60.1837 32.6549 60.2574 32.3408 60.4V58.8C31.1808 58.69 31.1208 59.69 29.9708 59.59C29.1608 57.73 30.1908 56.55 30.0008 53.67V53.69ZM26.7608 67.88C26.4184 67.3333 26.1047 66.7692 25.8208 66.19L27.3208 64.98C27.1263 66.0589 26.9861 67.147 26.9008 68.24C26.872 68.1138 26.8248 67.9925 26.7608 67.88ZM13.0708 89.45C12.0708 91.91 14.3608 93.65 13.9208 95.45C13.7279 95.899 13.3773 96.2619 12.9351 96.4701C12.4929 96.6783 11.9898 96.7174 11.5208 96.58C9.60078 95.49 12.7908 91.37 10.3808 90.49C8.77078 90.73 10.3808 93.35 9.25078 94.17C6.86078 95.09 6.47078 91.82 7.69078 90.64C6.69078 89.85 6.69078 88.16 6.42078 86.64C10.1608 86.64 13.2908 86.88 17.1808 86.64C16.0708 88.78 14.0708 86.98 13.0708 89.45ZM5.28078 86.45C4.59078 79.81 14.2808 78.45 18.2808 81.9C18.819 83.0339 19.4165 84.1388 20.0708 85.21C20.1146 85.6805 20.0944 86.1548 20.0108 86.62C19.4908 86.76 19.9508 85.93 19.3108 86.19C14.8408 86.35 8.47078 85.85 5.24078 86.48L5.28078 86.45ZM19.7308 87.72C19.8408 87.41 20.6108 87.72 20.4408 87.15C20.2565 86.691 20.2353 86.1827 20.3808 85.71C22.9108 89.88 26.0308 93.9 27.2808 97.84C24.9508 96.48 22.6708 95.08 19.3808 94.68C19.1728 94.8967 18.9976 95.1426 18.8608 95.41C19.0708 92.87 19.4208 90.33 19.6908 87.75L19.7308 87.72ZM22.5408 107.31C24.3508 105.67 27.5408 107.31 28.4708 108.89C25.7408 109.1 23.3308 108.98 22.5008 107.34L22.5408 107.31ZM29.2608 107.31C24.9308 105.13 21.0708 102.07 19.3808 97.45C19.1008 96.37 20.1708 96.65 20.1708 95.86C27.9208 97.07 30.1708 103.77 34.7808 108.1C33.6708 110.32 30.7608 108.13 29.2208 107.34L29.2608 107.31ZM34.3808 110.86C34.8408 109.86 35.9508 109.54 35.9608 108.1C36.9212 108.241 37.8022 108.713 38.4521 109.434C39.1019 110.155 39.4799 111.08 39.5208 112.05C37.6908 112.87 35.5508 111.85 34.3408 110.89L34.3808 110.86ZM30.8308 101.39C34.0908 100.11 34.9308 104.65 38.7308 104.15C39.2908 105.7 40.3008 106.79 40.3008 108.89C38.2685 108.409 36.3652 107.492 34.723 106.202C33.0808 104.912 31.739 103.281 30.7908 101.42L30.8308 101.39ZM33.9908 100.6C35.3308 99.8 37.6608 101.39 37.9308 102.97C36.0708 102.72 34.5208 102.17 33.9508 100.63L33.9908 100.6ZM46.2208 101.79C44.4006 102.122 42.5495 102.253 40.7008 102.18C39.9608 98.26 39.7808 93.83 38.7008 90.34C38.3508 89.23 37.4608 88.28 37.5108 87.18C37.7008 83.43 41.5108 81.99 42.6508 78.5C45.5008 80.77 46.5008 83.72 46.1908 88.37C43.3808 89.98 41.0208 90.37 41.4608 93.5C41.8108 96.11 47.4008 98.05 46.1808 101.82L46.2208 101.79ZM48.2208 93.5C42.3408 91.64 50.3508 86.84 48.2208 93.5V93.5ZM54.9408 103.76C50.6908 104.48 46.4608 102.06 46.6508 97.05C45.5008 95.43 43.2008 94.97 42.3108 93.11C42.6008 91.82 42.9608 90.6 44.6808 90.74C45.2408 92.37 46.6808 96.55 48.6208 94.29C49.6808 94.96 47.1808 96.71 48.6208 97.84C49.6208 97.95 50.3208 97.7 50.2008 96.66C51.8508 98.91 53.2108 101.51 54.8708 103.79L54.9408 103.76ZM59.2708 81.27C56.5908 84.5 53.2708 87.1 51.0008 90.74C49.4108 89.29 47.3808 88.3 47.0008 85.61C48.7308 84.48 49.2308 87.45 51.0008 87.61C52.0008 86.29 50.3508 85.03 49.8108 84.06C50.9208 82.84 52.2508 84.75 53.7508 84.45C52.0108 80.45 47.3008 79.33 43.8808 76.95C43.8808 75.55 45.3508 75.52 45.0708 73.8C41.3708 76.41 39.5808 80.94 36.3808 84.06C34.9908 84.14 35.6008 82.2 34.0208 82.48C36.6552 88.2044 38.2598 94.3484 38.7608 100.63C36.5508 99.81 34.7608 98.55 34.0208 96.29C32.4208 96.53 31.5408 97.5 29.2908 97.08C27.0708 91.34 23.0708 87.42 19.7408 82.87C22.4008 78.43 26.1608 75.08 29.6108 71.43C37.534 71.7136 45.4655 71.1842 53.2808 69.85C53.5408 71.85 51.2808 71.26 50.9308 72.61C51.8608 75.35 53.6708 77.22 54.8708 79.72C56.4408 80.12 58.7208 79.81 59.2008 81.3L59.2708 81.27ZM57.7008 78.5C54.6008 78.18 52.1308 73.92 53.3508 71.79C55.6708 73.11 56.3108 76.17 57.6308 78.53L57.7008 78.5ZM52.5008 59.59C53.0408 60.22 52.8308 61.59 53.6808 61.96C47.9908 58.22 54.6808 50.79 57.2308 47.35C58.7408 50.05 56.3308 52.23 54.8708 53.27C55.2408 56.54 54.3808 58.57 52.5008 59.59ZM54.5008 61.59C55.3131 61.4256 56.1575 61.5681 56.8708 61.99C56.7508 63.22 54.2808 62.86 54.4708 61.56L54.5008 61.59ZM86.8608 96.72C76.0208 88.36 66.7708 78.41 56.8608 69.09C56.9808 67.21 58.1808 69.79 59.2208 69.49C61.0108 66.37 66.0708 68.98 67.0708 65.11C68.9708 65.84 69.8208 67.62 72.5908 67.48C78.3241 76.22 83.9908 85.0333 89.5908 93.92C89.3008 95.47 88.0708 96.05 86.8308 96.69L86.8608 96.72Z" fill="white"/>
<path d="M44.6109 24.46C43.6109 24.06 41.9609 23.77 41.4509 24.85C42.3509 25.66 45.3609 24.94 45.3609 24.94L45.4709 24.06C41.0309 21.27 40.5209 19.83 40.5609 19.25C39.4009 22.17 43.8509 22.42 44.6109 24.46Z" fill="white"/>
<path d="M126.459 90.7598V92.3798H124.569V104.2H121.239V102.83C120.359 103.502 119.276 103.854 118.169 103.83C116.59 103.793 115.048 103.341 113.699 102.52C112.303 101.765 111.125 100.663 110.279 99.3198V96.1598C111.271 96.7242 112.38 97.0495 113.519 97.1098C113.884 97.1296 114.249 97.0761 114.592 96.9524C114.936 96.8287 115.251 96.6374 115.519 96.3898C115.939 95.9474 116.199 95.3771 116.257 94.7699C116.315 94.1628 116.168 93.5536 115.839 93.0398C115.713 92.8405 115.536 92.6776 115.328 92.5672C115.119 92.4567 114.885 92.4025 114.649 92.4098H109.949V90.7898L126.459 90.7598ZM118.709 92.3798C119.075 92.6565 119.364 93.0225 119.547 93.4427C119.731 93.8629 119.804 94.3233 119.759 94.7798C119.781 95.3726 119.659 95.9619 119.405 96.4979C119.151 97.0339 118.772 97.501 118.299 97.8598C117.327 98.5603 116.147 98.9126 114.949 98.8598C114.561 98.8574 114.173 98.8273 113.789 98.7698C114.298 99.5935 114.981 100.296 115.789 100.83C116.555 101.368 117.463 101.667 118.399 101.69C118.968 101.693 119.527 101.544 120.019 101.26C120.511 100.975 120.919 100.564 121.199 100.07V92.3798H118.709Z" fill="white"/>
<path d="M134.201 102.37L133.501 100.86C134.501 100.86 135.071 100.44 135.071 99.7198C135.065 99.4758 134.988 99.2389 134.85 99.0381C134.711 98.8373 134.517 98.6814 134.291 98.5898C133.842 98.3696 133.35 98.2501 132.851 98.2398C130.771 98.2398 129.671 99.0398 129.561 100.76C129.505 101.253 129.587 101.752 129.797 102.202C130.007 102.652 130.337 103.035 130.751 103.31C131.584 103.852 132.567 104.117 133.561 104.07C135.404 104.113 137.194 103.447 138.561 102.21L137.911 105.01C136.196 105.59 134.401 105.901 132.591 105.93C131.054 105.964 129.537 105.591 128.191 104.85C127.502 104.524 126.921 104.009 126.515 103.364C126.109 102.719 125.896 101.972 125.901 101.21C125.891 100.431 126.132 99.6698 126.588 99.0381C127.043 98.4063 127.689 97.9372 128.431 97.6998C127.171 97.5198 126.521 96.9898 126.431 96.0998C126.386 95.6831 126.467 95.2625 126.665 94.8931C126.864 94.5237 127.169 94.2228 127.541 94.0298C128.295 93.6245 129.145 93.4278 130.001 93.4598H133.911V92.3798H125.911V90.7598H140.131V92.3798H137.411V95.0798H131.191C130.551 95.0798 130.191 95.3398 130.191 95.8498C130.191 96.3598 130.421 96.5098 130.891 96.6698C131.708 96.5453 132.534 96.4818 133.361 96.4798C136.551 96.4798 138.271 97.4798 138.501 99.3698C138.529 99.854 138.403 100.335 138.141 100.743C137.878 101.151 137.493 101.465 137.041 101.64C136.268 102.112 135.386 102.375 134.481 102.4C134.387 102.398 134.293 102.388 134.201 102.37Z" fill="white"/>
<path d="M140.68 104.2V92.3798H139.68V90.7598H146.07V92.3798H144.15V104.2H140.68Z" fill="white"/>
<path d="M141.871 88.36C142.125 88.4759 142.401 88.5372 142.681 88.54C143.223 88.5428 143.748 88.3431 144.151 87.98C144.58 87.6288 144.896 87.1594 145.061 86.63V88.57C144.694 89.1306 144.192 89.5901 143.602 89.9063C143.011 90.2226 142.351 90.3854 141.681 90.38C141.117 90.4068 140.557 90.2678 140.071 89.98C139.548 89.7227 139.109 89.3243 138.801 88.83L140.611 86.57C140.637 86.955 140.768 87.3255 140.991 87.6411C141.213 87.9567 141.517 88.2054 141.871 88.36ZM143.401 87.42C143.501 87.3247 143.58 87.2098 143.633 87.0824C143.687 86.9551 143.713 86.818 143.711 86.68C143.713 86.5419 143.687 86.4049 143.633 86.2775C143.58 86.1502 143.501 86.0352 143.401 85.94C143.303 85.8417 143.187 85.7637 143.059 85.7105C142.931 85.6573 142.794 85.6299 142.656 85.6299C142.517 85.6299 142.38 85.6573 142.252 85.7105C142.124 85.7637 142.008 85.8417 141.911 85.94C141.811 86.0352 141.732 86.1502 141.678 86.2775C141.625 86.4049 141.599 86.5419 141.601 86.68C141.6 86.889 141.661 87.0936 141.777 87.2675C141.893 87.4414 142.058 87.5768 142.252 87.6563C142.445 87.7357 142.658 87.7557 142.862 87.7136C143.067 87.6715 143.255 87.5693 143.401 87.42Z" fill="white"/>
<path d="M159.45 95.5898C159.056 95.3317 158.601 95.1833 158.13 95.1598C157.778 95.1616 157.435 95.2762 157.153 95.4867C156.87 95.6972 156.663 95.9927 156.56 96.3298C156.289 96.9889 156.16 97.6975 156.18 98.4098C156.157 99.1231 156.312 99.8311 156.63 100.47C156.76 100.795 156.985 101.073 157.276 101.268C157.567 101.463 157.91 101.564 158.26 101.56C158.734 101.557 159.196 101.407 159.58 101.13V92.3798H152.32V90.7598H171.92V92.3798H163.07V94.0798C163.883 93.5633 164.827 93.2924 165.79 93.2998C166.433 93.2756 167.073 93.3859 167.671 93.6236C168.268 93.8612 168.81 94.2209 169.26 94.6798C169.707 95.15 170.054 95.7064 170.279 96.315C170.505 96.9236 170.604 97.5717 170.57 98.2198C170.587 98.9515 170.447 99.6784 170.159 100.351C169.871 101.024 169.442 101.627 168.9 102.12C167.926 103.01 166.65 103.496 165.33 103.48C165.022 103.478 164.714 103.451 164.41 103.4L163.71 101.07C163.874 101.238 164.07 101.373 164.286 101.465C164.503 101.558 164.735 101.607 164.97 101.61C165.317 101.6 165.651 101.476 165.92 101.257C166.189 101.038 166.379 100.737 166.46 100.4C166.707 99.7624 166.83 99.0834 166.82 98.3998C166.82 96.4898 166.09 95.5298 164.68 95.5298C164.113 95.5345 163.558 95.6898 163.07 95.9798V104.24H159.55V103.16C158.997 103.469 158.36 103.595 157.73 103.52C156.342 103.587 154.976 103.154 153.88 102.3C153.348 101.854 152.927 101.29 152.651 100.653C152.375 100.016 152.251 99.323 152.29 98.6298C152.228 97.2451 152.677 95.8859 153.55 94.8098C153.996 94.3112 154.548 93.92 155.167 93.6654C155.785 93.4108 156.453 93.2995 157.12 93.3398C157.677 93.3419 158.231 93.4124 158.77 93.5498L159.45 95.5898Z" fill="white"/>
<path d="M172.41 104.2V92.3798H171.41V90.7598H177.75V92.3798H175.83V104.2H172.41Z" fill="white"/>
<path d="M193.629 90.7598V92.3798H191.739V104.2H188.289V97.1998H186.069C186.178 98.6481 185.967 100.103 185.449 101.46C185.146 102.114 184.655 102.664 184.039 103.039C183.423 103.415 182.71 103.599 181.989 103.57C181.397 103.629 180.8 103.572 180.23 103.4C179.66 103.228 179.13 102.946 178.669 102.57C178.248 102.156 177.921 101.656 177.712 101.103C177.503 100.55 177.417 99.959 177.459 99.3698C177.419 98.3183 177.776 97.2901 178.459 96.4898C178.799 96.1049 179.221 95.8002 179.693 95.5979C180.165 95.3956 180.676 95.3006 181.189 95.3198C181.526 95.3193 181.861 95.3562 182.189 95.4298L182.779 97.2198C182.56 97.1162 182.322 97.0584 182.079 97.0498C181.819 97.0519 181.566 97.1295 181.349 97.2734C181.132 97.4172 180.962 97.6209 180.859 97.8598C180.62 98.3265 180.5 98.8453 180.509 99.3698C180.501 99.9037 180.621 100.432 180.859 100.91C180.953 101.16 181.119 101.376 181.336 101.531C181.554 101.686 181.812 101.773 182.079 101.78C182.729 101.78 183.079 101.23 183.079 100.13V92.3798H177.359V90.7598H193.629ZM186.069 92.3798V95.3798H188.289V92.3798H186.069Z" fill="white"/>
<path d="M213.231 92.38H207.811C208.081 92.4492 208.333 92.5738 208.551 92.746C208.77 92.9182 208.95 93.1342 209.081 93.38C209.389 93.8976 209.555 94.4876 209.561 95.09C209.571 95.6387 209.42 96.1782 209.127 96.642C208.833 97.1058 208.411 97.4736 207.911 97.7C206.922 98.1905 205.835 98.4504 204.731 98.46C205.336 98.6242 205.875 98.9739 206.271 99.46C206.321 99.53 206.591 100 207.081 100.86C207.961 102.45 208.811 103.24 209.641 103.24C210.483 103.149 211.289 102.853 211.991 102.38L211.261 104.7C210.402 105.001 209.501 105.163 208.591 105.18C207.874 105.185 207.164 105.042 206.505 104.76C205.846 104.477 205.252 104.062 204.761 103.54C203.975 102.59 203.253 101.587 202.601 100.54C201.891 99.44 201.251 98.89 200.651 98.89H200.221V96.35C201.146 96.845 202.172 97.122 203.221 97.16C203.917 97.1934 204.599 96.9529 205.121 96.49C205.368 96.2537 205.56 95.967 205.686 95.6495C205.812 95.332 205.868 94.9912 205.851 94.65C205.897 94.1849 205.795 93.717 205.557 93.3142C205.32 92.9114 204.96 92.5947 204.531 92.41H199.961V90.79H213.271L213.231 92.38Z" fill="white"/>
<path d="M226.491 95.5898C226.097 95.3317 225.641 95.1833 225.171 95.1598C224.818 95.1616 224.476 95.2762 224.193 95.4867C223.911 95.6972 223.703 95.9927 223.601 96.3298C223.33 96.9889 223.2 97.6975 223.221 98.4098C223.197 99.1231 223.352 99.8311 223.671 100.47C223.8 100.795 224.025 101.073 224.316 101.268C224.607 101.463 224.95 101.564 225.301 101.56C225.775 101.557 226.236 101.407 226.621 101.13V92.3798H219.361V90.7598H238.961V92.3798H230.141V94.0798C230.953 93.5633 231.898 93.2924 232.861 93.2998C233.503 93.2756 234.144 93.3859 234.741 93.6236C235.339 93.8612 235.88 94.2209 236.331 94.6798C236.778 95.15 237.125 95.7064 237.35 96.315C237.575 96.9236 237.674 97.5717 237.641 98.2198C237.658 98.9515 237.518 99.6784 237.229 100.351C236.941 101.024 236.512 101.627 235.971 102.12C234.996 103.01 233.72 103.496 232.401 103.48C232.092 103.478 231.785 103.451 231.481 103.4L230.781 101.07C230.945 101.238 231.141 101.373 231.357 101.465C231.573 101.558 231.805 101.607 232.041 101.61C232.387 101.6 232.721 101.476 232.99 101.257C233.26 101.038 233.449 100.737 233.531 100.4C233.778 99.7624 233.9 99.0834 233.891 98.3998C233.891 96.4898 233.161 95.5298 231.751 95.5298C231.183 95.5375 230.627 95.6963 230.141 95.9898V104.25H226.621V103.17C226.067 103.479 225.43 103.605 224.801 103.53C223.413 103.597 222.047 103.164 220.951 102.31C220.418 101.864 219.997 101.3 219.721 100.663C219.445 100.026 219.322 99.333 219.361 98.6398C219.299 97.2551 219.747 95.8959 220.621 94.8198C221.066 94.3212 221.619 93.93 222.237 93.6754C222.855 93.4208 223.523 93.3095 224.191 93.3498C224.747 93.3519 225.301 93.4224 225.841 93.5598L226.491 95.5898Z" fill="white"/>
<path d="M239.449 104.2V92.3798H238.449V90.7598H244.789V92.3798H242.869V104.2H239.449Z" fill="white"/>
<path d="M260.671 90.7598V92.3798H258.781V104.2H255.331V97.1998H253.071C253.18 98.6481 252.968 100.103 252.451 101.46C252.147 102.114 251.656 102.664 251.04 103.039C250.424 103.415 249.711 103.599 248.991 103.57C248.399 103.629 247.801 103.572 247.231 103.4C246.661 103.228 246.131 102.946 245.671 102.57C245.249 102.156 244.922 101.656 244.713 101.103C244.504 100.55 244.418 99.959 244.461 99.3698C244.42 98.3183 244.777 97.2901 245.461 96.4898C245.801 96.1049 246.222 95.8002 246.694 95.5979C247.166 95.3956 247.677 95.3006 248.191 95.3198C248.51 95.3229 248.829 95.3598 249.141 95.4298L249.731 97.2198C249.511 97.1162 249.273 97.0584 249.031 97.0498C248.771 97.0519 248.517 97.1295 248.3 97.2734C248.083 97.4172 247.913 97.6209 247.811 97.8598C247.571 98.3265 247.451 98.8453 247.461 99.3698C247.452 99.9037 247.572 100.432 247.811 100.91C247.904 101.16 248.07 101.376 248.288 101.531C248.505 101.686 248.764 101.773 249.031 101.78C249.681 101.78 250.031 101.23 250.031 100.13V92.3798H244.311V90.7598H260.671ZM253.071 92.3798V95.3798H255.291V92.3798H253.071Z" fill="white"/>
<path d="M271.279 102.37C271.563 102.693 271.927 102.935 272.335 103.072C272.742 103.209 273.178 103.236 273.599 103.15L271.069 105.82C270.679 105.55 270.279 105.29 269.889 105.04C269.516 104.61 269.295 104.068 269.259 103.5C268.459 103.657 267.645 103.741 266.829 103.75C265.242 103.805 263.684 103.318 262.409 102.37C261.764 101.863 261.259 101.2 260.94 100.443C260.622 99.6871 260.501 98.8621 260.589 98.0462C260.677 97.2302 260.971 96.4501 261.443 95.779C261.916 95.1079 262.551 94.568 263.289 94.21C264.883 93.5001 266.631 93.2043 268.369 93.35V92.35H260.189V90.73H274.499V92.35H271.829V95.29C270.927 95.1375 270.014 95.0573 269.099 95.05C267.974 95.0175 266.857 95.2397 265.829 95.7C265.317 95.913 264.879 96.2742 264.572 96.7373C264.266 97.2005 264.105 97.7446 264.109 98.3C264.092 98.7649 264.172 99.2284 264.344 99.6606C264.517 100.093 264.777 100.484 265.109 100.81C265.437 101.137 265.827 101.394 266.257 101.566C266.687 101.738 267.147 101.821 267.609 101.81C267.807 101.808 268.004 101.791 268.199 101.76C267.978 101.529 267.805 101.256 267.69 100.957C267.575 100.658 267.521 100.34 267.529 100.02C267.517 99.652 267.579 99.2852 267.711 98.9416C267.843 98.5979 268.043 98.2845 268.299 98.02C268.541 97.7529 268.84 97.5452 269.175 97.4134C269.51 97.2815 269.871 97.229 270.229 97.26C270.546 97.2594 270.859 97.3219 271.151 97.4438C271.443 97.5657 271.707 97.7446 271.929 97.97C272.353 98.4402 272.576 99.0576 272.549 99.69C272.603 100.21 272.513 100.735 272.289 101.207C272.065 101.68 271.716 102.082 271.279 102.37Z" fill="white"/>
<path d="M275.01 104.2V92.3798H274.01V90.7598H280.35V92.3798H278.43V104.2H275.01Z" fill="white"/>
<path d="M293.21 92.38H287.78C288.049 92.4492 288.302 92.5738 288.52 92.746C288.739 92.9182 288.919 93.1342 289.05 93.38C289.358 93.8976 289.524 94.4876 289.53 95.09C289.539 95.6373 289.389 96.1755 289.098 96.6389C288.807 97.1024 288.387 97.4711 287.89 97.7C286.897 98.1891 285.807 98.4488 284.7 98.46C285.305 98.6242 285.844 98.9739 286.24 99.46C286.29 99.53 286.56 100 287.05 100.86C287.93 102.45 288.79 103.24 289.61 103.24C290.451 103.149 291.258 102.853 291.96 102.38L291.23 104.7C290.371 105.001 289.47 105.163 288.56 105.18C287.843 105.184 287.133 105.041 286.474 104.759C285.815 104.477 285.221 104.062 284.73 103.54C283.943 102.59 283.222 101.587 282.57 100.54C281.903 99.44 281.253 98.89 280.62 98.89H280.19V96.35C281.115 96.8437 282.141 97.1206 283.19 97.16C283.889 97.1928 284.574 96.9526 285.1 96.49C285.343 96.2516 285.533 95.9644 285.657 95.6472C285.781 95.3301 285.837 94.9902 285.82 94.65C285.866 94.1849 285.763 93.717 285.526 93.3142C285.289 92.9114 284.929 92.5947 284.5 92.41H279.93V90.79H293.25L293.21 92.38Z" fill="white"/>
<path d="M300.58 98.9798V92.3798H299.33V90.7598H313.07V92.3798H311.18V104.2H307.91V102.34C307.127 102.999 306.133 103.354 305.11 103.34C303.92 103.374 302.763 102.94 301.89 102.13C301.459 101.729 301.12 101.24 300.894 100.697C300.668 100.153 300.561 99.5679 300.58 98.9798ZM307.89 99.8698V92.3798H303.98V98.6698C303.98 100.16 304.64 100.91 305.98 100.91C306.369 100.966 306.766 100.894 307.111 100.704C307.455 100.515 307.729 100.219 307.89 99.8598V99.8698Z" fill="white"/>
<path d="M313.539 104.2V92.3798H312.539V90.7598H318.889V92.3798H316.969V104.2H313.539Z" fill="white"/>
<path d="M329.329 92.38V94.84H323.329C323.213 94.8219 323.093 94.8312 322.981 94.8672C322.869 94.9032 322.766 94.9649 322.682 95.0474C322.597 95.1299 322.533 95.2309 322.495 95.3424C322.456 95.454 322.444 95.573 322.459 95.69C322.459 96.25 322.789 96.54 323.459 96.54H326.549C326.963 96.5364 327.373 96.6149 327.756 96.7711C328.138 96.9274 328.486 97.1581 328.779 97.45C329.091 97.7234 329.342 98.06 329.515 98.4376C329.687 98.8151 329.777 99.225 329.779 99.64C329.779 102.273 327.763 103.687 323.729 103.88C323.479 103.88 323.619 104.01 324.159 104.2C324.699 104.39 324.979 104.47 325.379 104.58C325.949 104.738 326.538 104.822 327.129 104.83C327.53 104.83 327.929 104.783 328.319 104.69L325.209 107.2C324.071 106.728 323.031 106.05 322.139 105.2C321.23 104.369 320.152 103.745 318.979 103.37L318.889 100.37C320.029 101.366 321.477 101.938 322.989 101.99C323.921 101.985 324.824 101.672 325.559 101.1C325.722 100.99 325.855 100.841 325.946 100.666C326.037 100.491 326.083 100.297 326.079 100.1C326.062 99.6548 325.889 99.2297 325.589 98.9C325.465 98.7269 325.303 98.5841 325.116 98.4819C324.93 98.3798 324.722 98.321 324.509 98.31H322.389C321.595 98.3359 320.808 98.1495 320.109 97.77C319.763 97.5864 319.475 97.3089 319.279 96.9694C319.082 96.6298 318.985 96.2419 318.999 95.85C318.999 94.09 320.189 93.21 322.569 93.21H326.069V92.37H318.449V90.75H331.629V92.37L329.329 92.38Z" fill="white"/>
<path d="M329.411 90.7599H325.961C325.667 90.3883 325.479 89.9452 325.414 89.4763C325.349 89.0075 325.41 88.5298 325.592 88.0926C325.773 87.6554 326.068 87.2745 326.446 86.9892C326.823 86.704 327.27 86.5247 327.741 86.4699C328.636 86.364 329.543 86.4354 330.411 86.6799L330.791 88.5999C330.461 88.3303 330.056 88.1696 329.631 88.1399C329.432 88.1336 329.239 88.2021 329.089 88.3318C328.939 88.4614 328.843 88.6428 328.821 88.8399C328.756 89.0679 328.719 89.303 328.711 89.5399C328.691 89.79 328.748 90.0401 328.873 90.2577C328.998 90.4753 329.185 90.6502 329.411 90.7599Z" fill="white"/>
<path d="M331.07 92.3798V90.7598H343.57V92.3798H331.07ZM343.33 96.5398C342.812 96.074 342.207 95.715 341.55 95.4834C340.893 95.2517 340.196 95.152 339.5 95.1898C339.064 95.1836 338.629 95.2204 338.2 95.2998C338.929 95.5139 339.564 95.9664 340.005 96.5847C340.445 97.203 340.666 97.9514 340.63 98.7098C340.59 101.776 339.15 103.346 336.31 103.42C335.677 103.463 335.041 103.372 334.445 103.153C333.849 102.935 333.305 102.593 332.85 102.15C332.407 101.695 332.062 101.154 331.835 100.561C331.608 99.9676 331.504 99.3344 331.53 98.6998C331.492 97.612 331.824 96.5435 332.473 95.6696C333.122 94.7956 334.048 94.168 335.1 93.8898C336.191 93.5008 337.342 93.3078 338.5 93.3198C340.183 93.3146 341.842 93.7233 343.33 94.5098V96.5398ZM336.58 96.7498L338.04 95.5398C336.4 95.5398 335.55 96.6298 335.47 98.6998C335.458 99.2064 335.55 99.71 335.74 100.18C335.98 100.79 336.33 101.1 336.8 101.1C337.59 101.1 337.96 100.33 337.9 98.7798C337.84 97.2298 337.56 96.6698 336.99 96.6698C336.864 96.6773 336.739 96.7043 336.62 96.7498H336.58Z" fill="white"/>
<path d="M342.369 92.3801V90.7601H344.749V91.6001C345.556 91.0001 347.329 90.7201 350.069 90.7601V92.7601C349.719 92.6064 349.342 92.5248 348.959 92.5201C348.473 92.525 348.001 92.6824 347.609 92.9701C347.413 93.0872 347.249 93.2504 347.13 93.4456C347.012 93.6409 346.943 93.8621 346.929 94.0901C346.929 95.0901 347.429 95.6301 348.529 95.6301C348.961 95.6377 349.388 95.5344 349.769 95.3301V97.4301C349.414 97.3242 349.038 97.3014 348.673 97.3636C348.307 97.4257 347.96 97.5712 347.66 97.7887C347.359 98.0061 347.112 98.2898 346.939 98.6178C346.766 98.9458 346.67 99.3092 346.659 99.6801C346.659 101.3 347.659 102.11 349.659 102.11C351.659 102.11 352.659 101.84 352.949 101.3C352.567 101.194 352.212 101.006 351.91 100.748C351.607 100.491 351.365 100.171 351.199 99.8101C350.834 99.1028 350.648 98.3162 350.659 97.5201C350.637 96.6124 350.891 95.7195 351.389 94.9601C351.878 94.2284 352.63 93.7129 353.489 93.5201V92.3801H351.169V90.7601H361.479V92.3801H356.999V93.5401C357.41 93.6561 357.792 93.8553 358.122 94.1254C358.453 94.3955 358.724 94.7307 358.919 95.1101C359.319 95.8749 359.522 96.7272 359.509 97.5901C359.525 98.4888 359.294 99.3746 358.839 100.15C358.386 100.943 357.683 101.562 356.839 101.91C357.417 102.277 358.095 102.456 358.779 102.42C359.414 102.41 360.047 102.34 360.669 102.21L358.829 105.04C358.052 104.992 357.293 104.79 356.594 104.447C355.896 104.104 355.272 103.625 354.759 103.04C353.956 103.477 353.07 103.743 352.159 103.82C351.241 103.979 350.311 104.063 349.379 104.07C347.856 104.108 346.341 103.832 344.929 103.26C344.204 103.035 343.569 102.588 343.113 101.981C342.657 101.374 342.403 100.639 342.389 99.8801C342.404 99.476 342.5 99.079 342.672 98.713C342.843 98.3469 343.088 98.0194 343.389 97.7501C343.639 97.4472 343.959 97.2096 344.322 97.0581C344.684 96.9065 345.078 96.8454 345.469 96.8801C345.124 96.9035 344.778 96.8571 344.452 96.7437C344.125 96.6303 343.825 96.4522 343.569 96.2201C343.318 95.9844 343.12 95.6969 342.991 95.3775C342.861 95.0581 342.803 94.7144 342.819 94.3701C342.816 93.9972 342.889 93.6276 343.034 93.2838C343.178 92.94 343.391 92.6291 343.659 92.3701L342.369 92.3801ZM355.199 95.3801C354.849 95.3801 354.599 95.7801 354.439 96.5901C354.313 97.114 354.249 97.6511 354.249 98.1901C354.249 99.7501 354.569 100.5 355.249 100.43C355.739 100.43 355.979 99.6901 355.979 98.2101C355.979 97.6874 355.935 97.1656 355.849 96.6501C355.669 95.7701 355.469 95.3501 355.199 95.3501V95.3801Z" fill="white"/>
<path d="M371.34 104.2V90.7598H374.34V104.2H371.34Z" fill="white"/>
</g>
<defs>
<clipPath id="clip0">
<rect width="376.67" height="113.68" fill="white"/>
</clipPath>
</defs>
</svg>
