<svg width="108" height="90" viewBox="0 0 108 90" fill="none" xmlns="http://www.w3.org/2000/svg">
<g clip-path="url(#clip0)">
<path fill-rule="evenodd" clip-rule="evenodd" d="M16.1629 72.8253V65.9773C16.1629 65.0775 16.7254 64.3547 17.657 64.3547H17.9148C18.846 64.3547 19.406 65.0783 19.406 65.9773V80.3943C19.406 83.9099 17.6691 86.7074 14.6423 88.4895C13.2558 89.3109 11.6732 89.7426 10.0616 89.7388H9.4183C5.90183 89.7388 3.10817 88.0006 1.32315 84.9759C0.500536 83.5896 0.0689482 82.0063 0.0742673 80.3943V79.7519C0.0742673 76.235 1.81199 73.4392 4.83626 71.6538C6.22252 70.8307 7.80608 70.3989 9.4183 70.4045H10.0616C12.4413 70.4045 14.4603 71.3269 16.1629 72.8253ZM3.31701 80.0725C3.31701 82.6121 4.5479 84.5214 6.77321 85.7393C7.67304 86.2315 8.64988 86.496 9.67653 86.496C12.1693 86.496 14.0183 85.32 15.2936 83.2077C15.8866 82.225 16.1629 81.1498 16.1629 80.0068C16.1629 77.8053 15.1207 76.0873 13.3466 74.8112C12.271 74.0377 11.0602 73.6498 9.73972 73.6498C7.02265 73.6498 5.06729 75.0225 3.89374 77.4609C3.49782 78.2854 3.31701 79.1605 3.31701 80.0725ZM30.6569 70.4045H31.1064C34.8639 70.4045 37.7216 72.2272 39.5326 75.5072C40.2566 76.8193 40.6442 78.2515 40.6442 79.7519V80.3943C40.6442 83.9099 38.9106 86.7111 35.8792 88.4899C34.4759 89.3131 32.9257 89.7388 31.2993 89.7388H30.6569C27.1404 89.7388 24.3459 88.0006 22.5617 84.9759C21.7387 83.5897 21.3067 82.0064 21.3116 80.3943V79.7519C21.3116 76.2346 23.0564 73.448 26.0732 71.6546C27.4756 70.8214 29.0271 70.4045 30.6569 70.4045ZM24.5547 80.0725C24.5547 82.5376 25.7643 84.3511 27.8464 85.6263C28.8241 86.2248 29.901 86.496 31.0432 86.496C33.479 86.496 35.2795 85.2609 36.5326 83.2051C37.1302 82.225 37.4006 81.1481 37.4006 80.0068C37.4006 77.7145 36.2965 75.9634 34.4089 74.6944C33.3748 73.9984 32.2234 73.6498 30.9779 73.6498C28.2608 73.6498 26.3054 75.0225 25.1323 77.4609C24.7355 78.2854 24.5547 79.1605 24.5547 80.0725ZM54.1262 73.9088C53.6365 73.6795 52.7199 73.6033 52.1909 73.5832C49.4814 73.4811 47.521 75.007 46.3709 77.3972C45.9737 78.2217 45.7925 79.0944 45.7925 80.0068C45.7925 82.7845 47.251 84.7294 49.7304 85.9151C50.6361 86.3479 51.8054 86.4299 52.7952 86.4299C53.6658 86.4299 54.8962 85.8967 55.6688 85.5296L55.8028 85.466H56.4025L56.4687 85.4794C57.2061 85.633 57.7627 86.1005 57.7627 86.894V87.215C57.7627 89.1897 54.1542 89.6417 52.7773 89.7379C47.9182 90.074 44.2841 87.4055 42.8988 82.7707C42.6581 81.9659 42.5497 81.1665 42.5497 80.3278V79.6862C42.5497 76.1693 44.295 73.3836 47.3113 71.5919C48.7138 70.759 50.2648 70.3405 51.8942 70.3405H52.537C54.2655 70.3405 55.8576 70.8314 57.2848 71.8061L57.402 71.8873L57.4761 72.0096C57.6301 72.2649 57.7627 72.5603 57.7627 72.8642V73.1852C57.7627 74.013 57.1433 74.4584 56.3958 74.6023L56.3339 74.6132H56.1422C55.6584 74.6132 54.5581 74.1122 54.1262 73.9088ZM64.6454 76.1048C65.9052 74.8434 67.1691 73.5845 68.4477 72.344C68.8039 71.9978 70.1528 70.533 70.6839 70.533H71.2648L71.331 70.5468C72.0709 70.7004 72.625 71.1687 72.625 71.9639V72.2845C72.625 72.8269 71.9897 73.4572 71.6394 73.8285C70.8944 74.6182 70.1101 75.382 69.3476 76.1555L65.4293 80.1332C67.1164 81.824 68.8018 83.5161 70.4751 85.2199C70.9392 85.6902 71.3997 86.164 71.8566 86.6413C72.0178 86.8108 72.2555 87.0217 72.3907 87.2565C72.5359 87.4766 72.625 87.7248 72.625 87.9897V88.3246L72.6062 88.402C72.4242 89.1419 71.9546 89.7388 71.1347 89.7388H70.8764C70.3399 89.7388 69.7339 89.1319 69.3664 88.7849C68.6089 88.0709 67.8777 87.3201 67.1352 86.5906L64.6454 84.1464V88.0529C64.6454 88.9528 64.0821 89.676 63.1517 89.676H62.8964C61.9648 89.676 61.4022 88.9528 61.4022 88.0529V66.0401C61.4022 65.1403 61.9652 64.4204 62.8964 64.4204H63.1517C64.0821 64.4204 64.6454 65.1403 64.6454 66.0401V76.1048ZM105.065 70.533H105.388C106.36 70.533 107.01 71.1884 107.01 72.1556C107.01 73.4983 105.726 73.8419 104.616 73.8419C103.159 73.8419 101.768 74.7237 100.764 75.7127C99.5125 76.9469 98.9646 78.5277 98.9646 80.2654V88.1166C98.9646 89.0164 98.4025 89.7388 97.4705 89.7388H97.2143C96.2823 89.7388 95.7206 89.0168 95.7206 88.1166V79.8147C95.7206 76.6267 97.2725 74.0243 99.8598 72.1992C101.405 71.1089 103.174 70.5334 105.065 70.5334V70.533ZM82.0155 86.0921C83.1958 86.5044 84.5413 86.4454 85.7521 86.2344C86.3716 85.9712 87.9553 85.2802 88.5378 85.3815L88.6287 85.397L88.7124 85.438C89.0681 85.6104 89.4076 85.8544 89.5892 86.2164C90.0136 87.0648 89.8098 87.9178 88.976 88.3995L88.6986 88.5598C85.6224 90.3352 82.3503 90.0891 79.2838 88.4309C77.8177 87.6382 76.6961 86.4617 75.8686 85.0274L75.6753 84.6922C73.7002 81.272 73.9668 77.6743 76.1942 74.4219C76.9631 73.2978 77.968 72.4293 79.1428 71.7501L79.5872 71.4935C82.4843 69.8211 85.5893 69.9358 88.5646 71.4035C90.1647 72.1929 91.4608 73.3693 92.354 74.9166L92.5147 75.1954C93.1634 76.3195 92.323 77.2989 91.4554 77.9685C90.4484 78.7453 89.4318 79.6803 88.4667 80.5132C86.3146 82.371 84.1659 84.233 82.0155 86.0921ZM79.2302 84.1359C81.6368 82.0726 84.0441 80.0072 86.4444 77.9351C87.2647 77.2277 88.1641 76.4937 88.9777 75.7499C88.3248 74.9271 87.2341 74.3341 86.3075 73.9804C84.4367 73.2676 82.5923 73.507 80.8767 74.4973C78.6313 75.7939 77.675 77.8585 77.7587 80.4278C77.7922 81.4398 78.0642 82.415 78.6012 83.2759C78.7904 83.5793 79.0017 83.8643 79.2302 84.1359ZM61.7283 19.1484H71.2983V28.9314H76.1369C78.3718 28.9314 80.67 28.5334 82.786 27.8165C83.8261 27.4637 84.9929 26.9731 86.0187 26.3558C84.6677 24.5921 83.978 22.3652 83.7754 20.17C83.4992 17.1838 84.1019 13.2974 86.1225 10.9603L87.1287 9.79681L88.3273 10.7607C91.3453 13.1852 93.8837 16.5736 94.3311 20.4362C97.9652 19.3673 102.232 19.62 105.435 21.4687L106.749 22.2271L106.058 23.5772C103.349 28.864 97.6848 30.5022 92.1476 30.2121C83.8621 50.8493 65.8232 60.6194 43.9514 60.6194C32.6511 60.6194 22.2842 56.3952 16.3805 46.3698L16.2838 46.2065L15.4237 44.4563C13.4282 40.0433 12.7653 35.2089 13.2148 30.3783L13.3499 28.9314H21.5338V19.1484H31.1034V9.57833H50.2439V0.00830078H61.7283V19.1484Z" fill="#364548"/>
<path fill-rule="evenodd" clip-rule="evenodd" d="M92.734 22.7678C93.3756 17.7806 89.6436 13.8636 87.3291 12.0037C84.6618 15.0874 84.2475 23.1691 88.4319 26.5717C86.0965 28.646 81.1759 30.526 76.1373 30.526H14.8043C14.3146 35.7856 15.2379 40.6292 17.3468 44.7747L18.0445 46.0512C18.4863 46.8005 18.969 47.5248 19.4905 48.2209C22.0121 48.3828 24.3371 48.4385 26.464 48.3916H26.4648C30.6447 48.2996 34.0552 47.8057 36.6401 46.91C36.8228 46.8532 37.0205 46.8697 37.1913 46.956C37.3621 47.0422 37.4927 47.1916 37.5553 47.3724C37.618 47.5532 37.6079 47.7513 37.5272 47.9248C37.4464 48.0983 37.3013 48.2336 37.1226 48.3021C36.7786 48.4218 36.4203 48.5331 36.0504 48.639H36.0491C34.0138 49.2203 31.8312 49.6112 29.0153 49.7849C29.1828 49.7878 28.8412 49.81 28.8404 49.81C28.7446 49.8163 28.624 49.8301 28.5278 49.8351C27.4195 49.8975 26.2234 49.9105 25.0004 49.9105C23.6628 49.9105 22.3457 49.8854 20.8729 49.81L20.8352 49.8351C25.9455 55.579 33.936 59.0239 43.9521 59.0239C65.1497 59.0239 83.1296 49.6271 91.0917 28.5313C96.7401 29.1109 102.169 27.6704 104.638 22.8498C100.705 20.5801 95.6465 21.3037 92.734 22.7678Z" fill="#22A0C8"/>
<path fill-rule="evenodd" clip-rule="evenodd" d="M92.7342 22.7678C93.3758 17.7806 89.6438 13.8636 87.3294 12.0037C84.6621 15.0874 84.2478 23.1691 88.4322 26.5718C86.0968 28.646 81.1762 30.526 76.1375 30.526H18.4364C18.1862 38.581 21.1753 44.6952 26.4638 48.3917H26.465C30.6449 48.2996 34.0555 47.8057 36.6403 46.9101C36.823 46.8532 37.0207 46.8697 37.1915 46.956C37.3623 47.0423 37.4929 47.1916 37.5556 47.3725C37.6182 47.5533 37.6081 47.7514 37.5274 47.9249C37.4466 48.0984 37.3015 48.2337 37.1228 48.3021C36.7788 48.4218 36.4206 48.5331 36.0506 48.639H36.0493C34.014 49.2204 31.6439 49.6615 28.828 49.8352C28.8272 49.8352 28.7598 49.7703 28.759 49.7703C35.9731 53.4709 46.4334 53.4575 58.4263 48.8508C71.8736 43.6845 84.3871 33.8424 93.118 22.5853C92.9866 22.6447 92.8585 22.7054 92.7342 22.7678Z" fill="#37B1D9"/>
<path fill-rule="evenodd" clip-rule="evenodd" d="M14.918 36.9165C15.2988 39.734 16.1233 42.372 17.3454 44.7748L18.0431 46.0513C18.4848 46.8006 18.9675 47.5249 19.4891 48.2209C22.0112 48.3829 24.3361 48.4385 26.4635 48.3917C30.6433 48.2996 34.0539 47.8057 36.6387 46.9101C36.8214 46.8532 37.0191 46.8697 37.1899 46.956C37.3607 47.0423 37.4913 47.1916 37.554 47.3724C37.6167 47.5533 37.6066 47.7514 37.5258 47.9249C37.445 48.0984 37.3 48.2336 37.1213 48.3021C36.7772 48.4218 36.419 48.5331 36.049 48.639H36.0477C34.0124 49.2204 31.6549 49.6364 28.839 49.8105C28.7423 49.8163 28.5737 49.8176 28.4762 49.823C27.3687 49.885 26.1847 49.9231 24.9614 49.9231C23.6242 49.9231 22.2564 49.8975 20.7845 49.8226C25.8947 55.5665 33.9346 59.0239 43.9508 59.0239C62.0981 59.0239 77.8867 52.1358 87.0503 36.9165H14.918Z" fill="#1B81A5"/>
<path fill-rule="evenodd" clip-rule="evenodd" d="M18.9863 36.9165C20.0711 41.8635 22.6782 45.747 26.4629 48.3917C30.6427 48.2996 34.0533 47.8057 36.6381 46.9101C36.8208 46.8532 37.0185 46.8697 37.1893 46.956C37.3602 47.0423 37.4907 47.1916 37.5534 47.3724C37.6161 47.5533 37.606 47.7514 37.5252 47.9249C37.4445 48.0984 37.2994 48.2336 37.1207 48.3021C36.7766 48.4218 36.4184 48.5331 36.0484 48.639H36.0472C34.0119 49.2204 31.6045 49.6364 28.7882 49.8105C36.002 53.5103 46.4321 53.4571 58.4241 48.8508C65.6788 46.0634 72.6611 41.9141 78.9252 36.9165H18.9863Z" fill="#1D91B4"/>
<path fill-rule="evenodd" clip-rule="evenodd" d="M23.127 20.7434H31.4213V29.0377H23.127V20.7434ZM23.8179 21.4348H24.4725V28.3467H23.8179V21.4348ZM25.0484 21.4348H25.7294V28.3467H25.0488V21.4348H25.0484ZM26.3048 21.4348H26.9858V28.3467H26.3048V21.4348ZM27.5621 21.4348H28.2426V28.3467H27.5621V21.4348ZM28.8189 21.4348H29.4994V28.3467H28.8189V21.4348ZM30.0753 21.4348H30.7303V28.3467H30.0753V21.4348ZM32.697 11.1733H40.9918V19.4673H32.6966V11.1733H32.697ZM33.3884 11.8647H34.0426V18.7763H33.3884V11.8647ZM34.6189 11.8647H35.2994V18.7763H34.6193V11.8647H34.6189ZM35.8753 11.8647H36.5558V18.7763H35.8753V11.8647ZM37.1321 11.8647H37.8126V18.7763H37.1321V11.8647ZM38.389 11.8647H39.0699V18.7763H38.389V11.8647ZM39.6454 11.8647H40.3008V18.7763H39.6454V11.8647Z" fill="#23A3C2"/>
<path fill-rule="evenodd" clip-rule="evenodd" d="M32.6977 20.7434H40.9925V29.0378H32.6973V20.7434H32.6977ZM33.3891 21.4348H34.0432V28.3468H33.3891V21.4348ZM34.6196 21.4348H35.3001V28.3468H34.62V21.4348H34.6196ZM35.876 21.4348H36.5565V28.3468H35.876V21.4348ZM37.1328 21.4348H37.8133V28.3468H37.1328V21.4348ZM38.3896 21.4348H39.0706V28.3468H38.3896V21.4348ZM39.6461 21.4348H40.3015V28.3468H39.6461V21.4348Z" fill="#34BBDE"/>
<path fill-rule="evenodd" clip-rule="evenodd" d="M42.2676 20.7434H50.5619V29.0378H42.2676V20.7434ZM42.9586 21.4348H43.6127V28.3468H42.9586V21.4348ZM44.189 21.4348H44.8695V28.3468H44.189V21.4348ZM45.4459 21.4348H46.1264V28.3468H45.4459V21.4348ZM46.7027 21.4348H47.3832V28.3468H46.7027V21.4348ZM47.9591 21.4348H48.6405V28.3468H47.9591V21.4348ZM49.2159 21.4348H49.8705V28.3468H49.2159V21.4348Z" fill="#23A3C2"/>
<path fill-rule="evenodd" clip-rule="evenodd" d="M42.2676 11.1733H50.5619V19.4673H42.2676V11.1733ZM42.9586 11.8647H43.6127V18.7763H42.9586V11.8647ZM44.189 11.8647H44.8696V18.7763H44.189V11.8647ZM45.4459 11.8647H46.1264V18.7763H45.4459V11.8647ZM46.7027 11.8647H47.3832V18.7763H46.7027V11.8647ZM47.9591 11.8647H48.6405V18.7763H47.9591V11.8647ZM49.216 11.8647H49.8705V18.7763H49.216V11.8647ZM51.8376 20.7434H60.132V29.0377H51.8376V20.7434ZM52.529 21.4348H53.1832V28.3467H52.529V21.4348ZM53.7595 21.4348H54.44V28.3467H53.7595V21.4348ZM55.0159 21.4348H55.6964V28.3467H55.0159V21.4348ZM56.2727 21.4348H56.9537V28.3467H56.2727V21.4348ZM57.5296 21.4348H58.2105V28.3467H57.5296V21.4348ZM58.7864 21.4348H59.441V28.3467H58.7864V21.4348Z" fill="#34BBDE"/>
<path fill-rule="evenodd" clip-rule="evenodd" d="M51.8379 11.1733H60.1323V19.4673H51.8379V11.1733ZM52.5293 11.8647H53.1835V18.7763H52.5293V11.8647ZM53.7598 11.8647H54.4403V18.7763H53.7598V11.8647ZM55.0162 11.8647H55.6967V18.7763H55.0162V11.8647ZM56.273 11.8647H56.954V18.7763H56.273V11.8647ZM57.5299 11.8647H58.2108V18.7763H57.5299V11.8647ZM58.7867 11.8647H59.4413V18.7763H58.7867V11.8647Z" fill="#23A3C2"/>
<path fill-rule="evenodd" clip-rule="evenodd" d="M51.8379 1.60278H60.1323V9.89798H51.8379V1.60278ZM52.5293 2.29377H53.1835V9.20616H52.5293V2.29335V2.29377ZM53.7598 2.29377H54.4403V9.20616H53.7598V2.29335V2.29377ZM55.0162 2.29377H55.6967V9.20616H55.0162V2.29335V2.29377ZM56.273 2.29377H56.954V9.20616H56.273V2.29335V2.29377ZM57.5299 2.29377H58.2108V9.20616H57.5299V2.29335V2.29377ZM58.7867 2.29377H59.4413V9.20616H58.7867V2.29335V2.29377Z" fill="#34BBDE"/>
<path fill-rule="evenodd" clip-rule="evenodd" d="M61.4082 20.7434H69.7025V29.0378H61.4082V20.7434ZM62.0988 21.4348H62.7538V28.3468H62.0992V21.4348H62.0988ZM63.3292 21.4348H64.0102V28.3468H63.3296V21.4348H63.3292ZM64.5865 21.4348H65.2674V28.3468H64.5865V21.4348ZM65.8429 21.4348H66.5238V28.3468H65.8429V21.4348ZM67.1001 21.4348H67.7807V28.3468H67.1001V21.4348ZM68.3565 21.4348H69.0111V28.3468H68.3565V21.4348Z" fill="#23A3C2"/>
<path fill-rule="evenodd" clip-rule="evenodd" d="M40.4728 42.4856C40.7759 42.4815 41.0768 42.5377 41.358 42.6509C41.6392 42.7642 41.8952 42.9321 42.1109 43.145C42.3267 43.358 42.498 43.6117 42.6149 43.8913C42.7318 44.171 42.7919 44.4712 42.7919 44.7743C42.7918 45.0774 42.7315 45.3775 42.6145 45.6572C42.4975 45.9368 42.3261 46.1905 42.1103 46.4033C41.8945 46.6162 41.6385 46.784 41.3573 46.8971C41.076 47.0102 40.7751 47.0663 40.472 47.0622C39.8705 47.0539 39.2964 46.8092 38.8739 46.3808C38.4515 45.9525 38.2147 45.3751 38.2148 44.7735C38.215 44.1719 38.4519 43.5945 38.8745 43.1663C39.2971 42.7381 39.8713 42.4936 40.4728 42.4856Z" fill="#D3ECEC"/>
<path fill-rule="evenodd" clip-rule="evenodd" d="M40.4732 43.1346C40.6825 43.1346 40.8821 43.174 41.0663 43.2455C40.9392 43.3193 40.8399 43.4329 40.7839 43.5687C40.7278 43.7045 40.718 43.855 40.756 43.9969C40.794 44.1389 40.8777 44.2643 40.9942 44.354C41.1106 44.4436 41.2533 44.4923 41.4003 44.4927C41.6535 44.4927 41.8732 44.3525 41.987 44.1449C42.1218 44.4696 42.1486 44.8291 42.0634 45.1701C41.9782 45.5112 41.7856 45.8159 41.514 46.0391C41.2424 46.2623 40.9062 46.3922 40.5551 46.4097C40.204 46.4271 39.8565 46.3312 39.5641 46.136C39.2717 45.9409 39.0498 45.6568 38.9312 45.3259C38.8126 44.9949 38.8036 44.6346 38.9055 44.2982C39.0074 43.9617 39.2149 43.6669 39.4972 43.4574C39.7795 43.2479 40.1217 43.1347 40.4732 43.1346ZM0 37.7436H106.443C104.125 37.156 99.1101 36.3616 99.9371 33.324C95.7225 38.2006 85.5594 36.7454 82.9943 34.341C80.1383 38.4836 63.5102 36.9086 62.3504 33.6814C58.7695 37.8838 47.674 37.8838 44.0931 33.6814C42.9325 36.9086 26.3048 38.4836 23.4484 34.3406C20.8836 36.7454 10.721 38.2006 6.50642 33.3244C7.33343 36.3616 2.31822 37.156 0 37.744" fill="#364548"/>
<path fill-rule="evenodd" clip-rule="evenodd" d="M46.5554 58.9745C40.8885 56.2855 37.7784 52.6296 36.0478 48.6394C33.9426 49.24 31.4127 49.6242 28.4725 49.7891C27.3651 49.851 26.1999 49.8828 24.9778 49.8828C23.5682 49.8828 22.0829 49.841 20.5234 49.7585C25.7203 54.9524 32.1133 58.951 43.9509 59.0239C44.8248 59.0239 45.6919 59.0071 46.5554 58.9745Z" fill="#BDD9D7"/>
<path fill-rule="evenodd" clip-rule="evenodd" d="M38.1528 52.3217C37.3689 51.2574 36.6084 49.9198 36.0493 48.6387C33.9441 49.2401 31.4132 49.6243 28.4727 49.7896C30.4925 50.8858 33.3807 51.9015 38.1532 52.3217" fill="#D3ECEC"/>
</g>
<defs>
<clipPath id="clip0">
<rect width="107.143" height="90" fill="white"/>
</clipPath>
</defs>
</svg>
